<svg width="24" height="24" viewBox="0 0 24 24" fill="none" xmlns="http://www.w3.org/2000/svg">
<path d="M7.68475 10.1342L7.69733 10.1218L7.70931 10.1089C9.64128 8.01713 10.6877 5.67589 11.1925 3.95817C11.723 5.10236 12.0203 6.46215 12.1568 7.82977C12.3179 9.44393 12.2496 11.0105 12.1145 12.1301C12.0323 12.8115 12.5814 13.6584 13.5036 13.4816C14.5154 13.2876 15.2914 12.7133 15.8692 12.1185C16.2973 11.6779 16.6442 11.1956 16.9089 10.8073C17.748 11.9042 18.25 13.2898 18.25 14.8C18.25 18.3823 15.432 21.25 12 21.25C8.568 21.25 5.75 18.3823 5.75 14.8C5.75 12.9616 6.49414 11.3074 7.68475 10.1342Z" stroke="white" stroke-width="1.5"/>
</svg>
