<svg width="48" height="48" viewBox="0 0 48 48" fill="none" xmlns="http://www.w3.org/2000/svg">
<mask id="mask0_44_3183" style="mask-type:alpha" maskUnits="userSpaceOnUse" x="0" y="0" width="48" height="48">
<rect width="48" height="48" rx="15" fill="#F47459"/>
</mask>
<g mask="url(#mask0_44_3183)">
<rect width="48" height="48" rx="15" fill="#14C59D"/>
<path d="M15.2019 42.4128C14.5436 38.4454 15.659 35.3697 16.2076 33.9138C18.0362 29.0546 21.474 26.2701 23.1928 25.0872C25.8077 23.2854 28.3678 22.4847 30.0501 22.1207C30.3792 22.0479 30.7266 21.9569 31.0558 21.8659C32.2992 21.5019 33.8901 20.9923 35.7187 20.319C37.9313 19.5 39.1199 19.0632 40.6193 18.2261C42.6491 17.0977 44.0022 15.9511 45.2822 14.8592C46.5988 13.7308 48.2811 12.1293 50 10C49.7623 11.6015 49.2503 13.9128 48.1166 16.4971C47.4034 18.0805 46.7634 19.5364 45.4285 21.0833C42.7222 24.2318 39.1382 25.4875 37.5656 26.0335C37.4741 26.0699 37.5473 26.0335 33.6707 27.3075C33.1952 27.4531 31.1472 28.1264 30.6901 28.2902C28.9346 28.8544 24.8386 30.4377 21.5471 34.4962C16.9939 40.1197 17.2316 46.4349 17.3413 48C16.5916 46.8534 15.6225 44.9425 15.2019 42.4128ZM30.5621 34.1686C32.7564 33.9502 34.7678 33.9502 36.505 34.0412C37.5656 33.9502 39.5405 33.6044 41.3142 32.1667C43.1062 30.7107 43.7828 28.909 44.3314 27.4713C45.0628 25.5239 45.2274 23.8132 45.2457 22.6849C44.6605 23.249 43.7645 24.0134 42.5576 24.7414C41.4422 25.433 40.5279 25.7969 39.1382 26.3429C38.1507 26.7433 36.8159 27.2347 35.1701 27.7079C31.9152 28.7088 29.3552 29.8554 27.5266 30.8017C25.5152 31.8209 23.9609 32.8218 22.9551 34.6418C22.6991 35.1149 22.5346 35.5153 22.4431 35.8065C24.6374 35.1149 27.3803 34.478 30.5621 34.1686ZM22.4797 40.1743C23.138 40.0651 23.9426 39.9923 27.1426 40.3199C27.9838 40.4109 28.77 40.5019 29.4649 40.5929C31.5861 40.8659 33.7438 40.4837 35.609 39.41C36.2856 39.0278 36.9621 38.5364 37.6021 37.8812C38.7724 36.7165 39.3942 35.4789 39.7416 34.6054C38.681 34.7874 37.4741 34.9512 36.1393 35.0057C35.3347 35.0421 34.5667 35.0421 33.8535 35.0057C30.9278 34.8966 28.5872 35.3333 27.0329 35.7337C24.418 36.4071 21.2728 37.2079 19.7185 39.8831C19.3528 40.5201 19.1517 41.1207 19.0419 41.5211C20.4134 40.6839 21.6203 40.3199 22.4797 40.1743ZM19.8282 45.0881C20.0842 45.0517 20.3402 45.0335 20.5597 45.0153C21.2728 44.9971 21.986 45.0881 22.6808 45.2883C23.4488 45.5067 24.29 45.7069 25.2043 45.8707C25.7529 45.9617 26.2832 46.0345 26.7952 46.0891C27.618 46.1801 28.4409 46.1255 29.2455 45.9435C29.7758 45.8161 30.3426 45.6159 30.9278 45.3065C33.2684 44.0326 34.1095 41.8487 34.3107 41.2663C33.945 41.5575 33.3781 41.9397 32.6284 42.2308C31.5678 42.6494 30.6718 42.6676 29.7392 42.6858C29.0809 42.704 28.2215 42.6676 27.1975 42.4674C26.8866 42.4128 26.594 42.3218 26.3014 42.249C23.4854 41.4665 20.7242 41.9215 19.1151 43.5958C18.7311 43.9962 18.2374 44.6331 17.9265 45.6341C18.4019 45.4339 19.0419 45.1973 19.8282 45.0881Z" fill="#FDFFFA"/>
</g>
</svg>
