<svg width="24" height="24" viewBox="0 0 24 24" fill="none" xmlns="http://www.w3.org/2000/svg">
<path d="M7.9665 21C16.3259 21 20.8982 14.0743 20.8982 8.0683C20.8982 7.87158 20.8982 7.67576 20.8849 7.48082C21.7744 6.83743 22.5422 6.0408 23.1524 5.12823C22.323 5.49596 21.443 5.73701 20.542 5.84331C21.4908 5.27537 22.2009 4.38197 22.5401 3.32945C21.648 3.8589 20.6719 4.232 19.6541 4.43264C18.9689 3.70399 18.0626 3.2215 17.0755 3.05982C16.0884 2.89815 15.0755 3.06631 14.1936 3.53829C13.3117 4.01026 12.6099 4.75974 12.1969 5.67073C11.7839 6.58173 11.6826 7.60345 11.9087 8.5778C10.1018 8.48716 8.33407 8.01756 6.72036 7.19948C5.10665 6.38141 3.68299 5.23314 2.54181 3.82921C1.96061 4.82976 1.7826 6.0142 2.04403 7.14139C2.30545 8.26857 2.98665 9.25374 3.94893 9.89632C3.22561 9.87512 2.51804 9.67999 1.8861 9.32744V9.38504C1.88638 10.4344 2.24963 11.4513 2.91422 12.2633C3.57881 13.0754 4.50383 13.6326 5.53239 13.8403C4.86327 14.0228 4.16122 14.0495 3.48019 13.9183C3.77073 14.8213 4.33618 15.611 5.0975 16.1769C5.85881 16.7428 6.77793 17.0566 7.72636 17.0746C6.78403 17.8153 5.70491 18.3629 4.55073 18.6862C3.39655 19.0094 2.18997 19.1019 1 18.9584C3.07848 20.2922 5.49687 20.9997 7.9665 20.9965" fill="#1DA1F2"/>
</svg>
