<svg width="48" height="48" viewBox="0 0 48 48" fill="none" xmlns="http://www.w3.org/2000/svg">
<mask id="mask0_0_1" style="mask-type:alpha" maskUnits="userSpaceOnUse" x="0" y="0" width="48" height="48">
<rect width="48" height="48" rx="15" fill="#F47459"/>
</mask>
<g mask="url(#mask0_0_1)">
<rect width="48" height="48" fill="#F20CEC"/>
<path d="M41.6331 16.5251V15.5738C41.6333 15.4219 41.5732 15.2762 41.466 15.1686C41.3589 15.061 41.2134 15.0004 41.0615 15H41.0385C37.9479 15.1491 35.0249 16.4495 32.8448 18.6453C30.6647 20.8411 29.3853 23.7733 29.2584 26.865C29.2725 27.2671 29.5973 27.3719 29.7883 27.3719H30.7545C30.9016 27.3715 31.043 27.3147 31.1494 27.2132C31.2559 27.1117 31.3194 26.9733 31.3268 26.8263C31.4617 24.2788 32.5352 21.8715 34.3403 20.0687C36.1453 18.266 38.554 17.1956 41.1017 17.064C41.5045 17.0127 41.6331 16.7927 41.6331 16.5251ZM32.9374 27.3763H33.8582C34.0026 27.3754 34.1413 27.3198 34.2465 27.2208C34.3517 27.1219 34.4155 26.9868 34.4253 26.8427C34.554 25.1072 35.3047 23.4764 36.5394 22.25C37.7741 21.0235 39.4099 20.2839 41.1463 20.167C41.2827 20.158 41.4102 20.0956 41.501 19.9934C41.5918 19.8911 41.6387 19.7573 41.6316 19.6207V18.6753C41.6312 18.5229 41.5703 18.3768 41.4623 18.2692C41.3543 18.1616 41.208 18.1013 41.0556 18.1015C41.043 18.1008 41.0303 18.1008 41.0177 18.1015C38.7708 18.2505 36.6545 19.2104 35.0624 20.8028C33.4702 22.3953 32.5107 24.5118 32.3621 26.7587C32.3519 26.9109 32.4025 27.0609 32.5029 27.1757C32.6032 27.2905 32.7451 27.3608 32.8972 27.3711H32.9351L32.9374 27.3763ZM41.6308 21.7805V22.7296C41.6308 23.1161 41.2949 23.2558 41.1314 23.2752C40.2176 23.3868 39.3673 23.8006 38.7154 24.4507C38.0636 25.1008 37.6476 25.95 37.5335 26.8635C37.517 27.0036 37.4498 27.1328 37.3447 27.2269C37.2396 27.3209 37.1037 27.3733 36.9627 27.3741H36.0418C35.8902 27.3747 35.7445 27.3151 35.6368 27.2083C35.529 27.1016 35.4681 26.9564 35.4673 26.8048C35.4662 26.7865 35.4662 26.7681 35.4673 26.7498C35.6112 25.3298 36.2409 24.003 37.2501 22.9938C38.2592 21.9845 39.5859 21.3545 41.0058 21.2105C41.0805 21.2035 41.1558 21.2113 41.2274 21.2335C41.2991 21.2557 41.3656 21.2917 41.4233 21.3396C41.4811 21.3875 41.5287 21.4463 41.5637 21.5127C41.5987 21.579 41.6202 21.6516 41.6271 21.7263C41.6282 21.7448 41.6282 21.7634 41.6271 21.782L41.6308 21.7805ZM52.473 35.6047C52.2054 35.6047 51.9854 35.4754 51.9334 35.0733C51.802 32.5252 50.7318 30.116 48.9291 28.3105C47.1264 26.5049 44.719 25.4308 42.1712 25.2953C42.0243 25.288 41.8858 25.2246 41.7844 25.118C41.683 25.0115 41.6264 24.8701 41.6264 24.723V23.7568C41.6264 23.5658 41.7312 23.241 42.1325 23.2269C45.2242 23.3535 48.1565 24.6326 50.3527 26.8124C52.5488 28.9922 53.8498 31.915 53.9996 35.0056C54.0054 35.1574 53.9508 35.3053 53.8476 35.4168C53.7445 35.5282 53.6013 35.5942 53.4496 35.6002H53.4266L52.473 35.6047ZM41.6219 26.9088C41.6219 26.8334 41.6368 26.7586 41.6657 26.6889C41.6947 26.6192 41.7371 26.5559 41.7905 26.5026C41.8439 26.4493 41.9074 26.4071 41.9772 26.3783C42.0469 26.3496 42.1217 26.3349 42.1972 26.3351C42.2101 26.3343 42.223 26.3343 42.2358 26.3351C44.4838 26.4828 46.6014 27.4423 48.1946 29.035C49.7879 30.6277 50.7481 32.7451 50.8966 34.993C50.9066 35.145 50.856 35.2948 50.7559 35.4095C50.6557 35.5243 50.5142 35.5948 50.3622 35.6054H50.3243H49.3827C49.2461 35.6126 49.1122 35.5656 49.01 35.4748C48.9078 35.384 48.8454 35.2566 48.8364 35.1201C48.7192 33.3836 47.9793 31.7478 46.7527 30.5132C45.526 29.2785 43.8949 28.5281 42.1593 28.3998C42.0151 28.3904 41.8799 28.3266 41.781 28.2213C41.6821 28.116 41.6268 27.9771 41.6264 27.8327L41.6219 26.9088ZM47.2132 35.6047H46.2701C45.8828 35.6047 45.7438 35.2687 45.7238 35.1045C45.612 34.1908 45.1982 33.3406 44.5481 32.6889C43.898 32.0372 43.0489 31.6213 42.1355 31.5072C41.9954 31.4912 41.866 31.4243 41.7718 31.3193C41.6777 31.2142 41.6254 31.0782 41.6249 30.9372V30.0133C41.6245 29.9383 41.6389 29.8639 41.6673 29.7944C41.6956 29.7249 41.7374 29.6617 41.7902 29.6083C41.843 29.555 41.9058 29.5125 41.975 29.4835C42.0442 29.4544 42.1184 29.4392 42.1935 29.4388C42.2118 29.4377 42.2302 29.4377 42.2485 29.4388C43.6682 29.5827 44.9948 30.2124 46.0039 31.2214C47.0131 32.2304 47.6429 33.5569 47.787 34.9767C47.8008 35.1273 47.7543 35.2774 47.6575 35.3937C47.5608 35.5101 47.4218 35.5833 47.2712 35.5973C47.2531 35.5984 47.235 35.5984 47.2169 35.5973L47.2132 35.6047ZM22.5263 27.3704C22.7939 27.3704 23.0138 27.499 23.0659 27.9011C23.1975 30.4493 24.2682 32.8585 26.0713 34.6638C27.8745 36.4692 30.2823 37.5428 32.8303 37.6776C32.9771 37.6852 33.1154 37.7487 33.2167 37.8552C33.3181 37.9616 33.3748 38.1029 33.3751 38.2499V39.2161C33.3751 39.4078 33.2703 39.7326 32.869 39.746C29.7771 39.6198 26.8444 38.3411 24.6479 36.1614C22.4515 33.9817 21.1503 31.0588 21.0005 27.968C20.9975 27.8928 21.0093 27.8179 21.0353 27.7474C21.0613 27.6768 21.1009 27.6121 21.1519 27.5569C21.2029 27.5017 21.2643 27.457 21.3325 27.4256C21.4008 27.3941 21.4746 27.3763 21.5497 27.3734H21.5735L22.5263 27.3704ZM33.3774 36.0662C33.3772 36.1417 33.3621 36.2164 33.3331 36.286C33.304 36.3556 33.2615 36.4188 33.208 36.472C33.1545 36.5253 33.0911 36.5674 33.0213 36.5961C32.9515 36.6248 32.8768 36.6395 32.8014 36.6393H32.7635C30.5164 36.4911 28.3997 35.5317 26.807 33.9397C25.2143 32.3477 24.254 30.2313 24.1049 27.9843C24.0995 27.9091 24.1091 27.8336 24.1329 27.762C24.1567 27.6905 24.1945 27.6244 24.2439 27.5674C24.2933 27.5105 24.3535 27.4638 24.4209 27.4301C24.4884 27.3965 24.5618 27.3764 24.637 27.3711H25.6188C25.7557 27.364 25.8897 27.4111 25.992 27.5023C26.0943 27.5934 26.1565 27.7212 26.1651 27.858C26.2824 29.5944 27.0224 31.2301 28.249 32.4647C29.4757 33.6993 31.1066 34.4498 32.8422 34.5783C32.9864 34.5877 33.1216 34.6515 33.2205 34.7568C33.3194 34.862 33.3747 35.0009 33.3751 35.1454L33.3774 36.0662ZM27.7861 27.3704H28.73C29.1172 27.3704 29.2562 27.7063 29.2762 27.8698C29.3882 28.7836 29.802 29.6338 30.452 30.2856C31.102 30.9374 31.9511 31.3535 32.8645 31.4678C33.0046 31.4837 33.134 31.5504 33.2281 31.6554C33.3222 31.7603 33.3746 31.8962 33.3751 32.0372V32.961C33.3753 33.1125 33.3155 33.2579 33.2089 33.3654C33.1022 33.4729 32.9573 33.5338 32.8058 33.5348C32.7872 33.5348 32.7694 33.5348 32.7516 33.5348C31.3316 33.3908 30.005 32.761 28.9957 31.7518C27.9865 30.7427 27.3565 29.4161 27.2123 27.9962C27.2054 27.9212 27.2134 27.8455 27.2358 27.7736C27.2582 27.7017 27.2947 27.6349 27.343 27.5772C27.3914 27.5194 27.4507 27.4718 27.5176 27.4371C27.5844 27.4024 27.6575 27.3812 27.7326 27.3749C27.7504 27.3749 27.7682 27.3749 27.7868 27.3749L27.7861 27.3704ZM33.3803 46.4715C33.3803 46.204 33.5089 45.984 33.911 45.9327C36.4583 45.8008 38.8665 44.7306 40.6716 42.9284C42.4766 41.1262 43.5506 38.7196 43.6866 36.1725C43.6938 36.0255 43.7573 35.887 43.8638 35.7854C43.9703 35.6839 44.1117 35.6272 44.2589 35.627H45.2251C45.4161 35.627 45.7409 35.7318 45.755 36.1339C45.6281 39.2255 44.3489 42.1577 42.1689 44.3536C39.989 46.5495 37.0662 47.8502 33.9756 47.9996C33.8239 48.0052 33.6762 47.9505 33.5647 47.8474C33.4533 47.7444 33.3873 47.6013 33.3811 47.4496V46.4715H33.3803ZM42.076 35.6203C42.1515 35.6203 42.2262 35.6352 42.2958 35.6641C42.3655 35.6931 42.4288 35.7355 42.482 35.7889C42.5353 35.8424 42.5774 35.9058 42.6061 35.9756C42.6348 36.0454 42.6494 36.1201 42.6491 36.1956C42.6491 36.2082 42.6491 36.2208 42.6491 36.2342C42.5017 38.4823 41.5424 40.6003 39.9499 42.1938C38.3573 43.7873 36.24 44.7479 33.992 44.8966C33.8399 44.9068 33.6899 44.8563 33.575 44.7561C33.46 44.656 33.3895 44.5143 33.3788 44.3622C33.3788 44.3496 33.3788 44.3369 33.3788 44.3243V43.3826C33.3717 43.2461 33.4186 43.1122 33.5095 43.0099C33.6003 42.9077 33.7277 42.8454 33.8642 42.8364C35.6005 42.7193 37.2362 41.9796 38.4709 40.7532C39.7056 39.5268 40.4563 37.8961 40.5851 36.1606C40.5944 36.0163 40.6581 35.881 40.7634 35.7819C40.8686 35.6828 41.0076 35.6274 41.1522 35.627L42.076 35.6203ZM33.3803 41.2109V40.27C33.3803 39.8835 33.717 39.7438 33.8805 39.7244C34.7942 39.6124 35.6443 39.1986 36.2961 38.5485C36.9478 37.8985 37.364 37.0495 37.4785 36.1361C37.4946 35.996 37.5616 35.8667 37.6666 35.7726C37.7716 35.6785 37.9075 35.6262 38.0485 35.6255H38.9723C39.1238 35.6249 39.2693 35.6845 39.3769 35.7911C39.4845 35.8977 39.5453 36.0426 39.5461 36.1941C39.5461 36.2129 39.5461 36.2315 39.5461 36.2498C39.4016 37.6695 38.7715 38.9959 37.7623 40.0048C36.7531 41.0138 35.4266 41.6435 34.0069 41.7877C33.9319 41.7945 33.8563 41.7864 33.7844 41.764C33.7125 41.7415 33.6458 41.705 33.588 41.6567C33.5303 41.6083 33.4827 41.5491 33.4479 41.4822C33.4132 41.4154 33.392 41.3424 33.3855 41.2674C33.3844 41.2493 33.3844 41.2312 33.3855 41.2131L33.3803 41.2109Z" fill="white"/>
</g>
</svg>
