<svg width="24" height="24" viewBox="0 0 24 24" fill="none" xmlns="http://www.w3.org/2000/svg">
<path d="M19.0587 5.32698C17.6988 4.71369 16.2411 4.26038 14.7167 4.00262C14.7032 4.00002 14.6891 4.0017 14.6765 4.00743C14.6639 4.01316 14.6535 4.02266 14.6465 4.03462C14.4599 4.3626 14.2519 4.79013 14.1061 5.12788C12.4894 4.88633 10.8458 4.88633 9.2291 5.12788C9.06674 4.75356 8.88365 4.38857 8.68069 4.03462C8.67381 4.02252 8.6634 4.0128 8.65086 4.00676C8.63831 4.00073 8.62422 3.99866 8.61047 4.00084C7.08702 4.25861 5.62933 4.71191 4.26853 5.32609C4.25683 5.331 4.2469 5.33938 4.24009 5.35009C1.47405 9.41649 0.715879 13.3825 1.0883 17.2986C1.08934 17.3082 1.09231 17.3175 1.09705 17.3259C1.10179 17.3343 1.10818 17.3417 1.11585 17.3475C2.73032 18.5229 4.53104 19.4183 6.44261 19.9962C6.45594 20.0003 6.47019 20.0003 6.48351 19.9962C6.49683 19.9921 6.5086 19.984 6.51728 19.9731C6.92862 19.423 7.29313 18.8394 7.60698 18.2284C7.61134 18.22 7.61385 18.2108 7.61434 18.2014C7.61484 18.192 7.61331 18.1826 7.60985 18.1738C7.6064 18.1651 7.6011 18.1571 7.59432 18.1506C7.58753 18.1441 7.57943 18.139 7.57054 18.1359C6.99636 17.9197 6.44002 17.6588 5.90665 17.3555C5.89707 17.3501 5.88899 17.3423 5.88315 17.3329C5.8773 17.3236 5.87387 17.3129 5.87317 17.3019C5.87247 17.2909 5.87451 17.2799 5.87911 17.2698C5.88371 17.2598 5.89073 17.2511 5.89954 17.2444C6.01153 17.1618 6.12352 17.0755 6.23018 16.9893C6.23978 16.9816 6.25135 16.9766 6.26359 16.9751C6.27583 16.9735 6.28827 16.9754 6.29951 16.9804C9.78995 18.5483 13.5701 18.5483 17.0197 16.9804C17.031 16.9751 17.0435 16.973 17.056 16.9744C17.0684 16.9758 17.0801 16.9807 17.0899 16.9884C17.1966 17.0755 17.3077 17.1618 17.4206 17.2444C17.4295 17.2509 17.4366 17.2595 17.4413 17.2695C17.4461 17.2794 17.4483 17.2904 17.4478 17.3014C17.4472 17.3124 17.444 17.3231 17.4383 17.3326C17.4326 17.342 17.4247 17.3499 17.4152 17.3555C16.8837 17.6613 16.3309 17.9199 15.7504 18.135C15.7415 18.1383 15.7334 18.1434 15.7266 18.15C15.7198 18.1566 15.7145 18.1646 15.7111 18.1734C15.7076 18.1823 15.7061 18.1917 15.7066 18.2012C15.7071 18.2107 15.7096 18.2199 15.714 18.2284C16.034 18.839 16.4002 19.4203 16.8028 19.9722C16.8112 19.9836 16.8229 19.992 16.8362 19.9965C16.8496 20.0009 16.864 20.0012 16.8775 19.9971C18.7923 19.4208 20.596 18.525 22.2122 17.3475C22.2201 17.342 22.2267 17.3349 22.2317 17.3266C22.2366 17.3183 22.2396 17.3091 22.2407 17.2995C22.6851 12.7718 21.4958 8.83786 19.0862 5.35187C19.0803 5.34054 19.0705 5.33171 19.0587 5.32698ZM8.12873 14.9139C7.07813 14.9139 6.21152 13.9637 6.21152 12.7985C6.21152 11.6323 7.06124 10.6831 8.12873 10.6831C9.20421 10.6831 10.0628 11.6403 10.0459 12.7985C10.0459 13.9646 9.19621 14.9139 8.12873 14.9139ZM15.2171 14.9139C14.1657 14.9139 13.2999 13.9637 13.2999 12.7985C13.2999 11.6323 14.1488 10.6831 15.2171 10.6831C16.2926 10.6831 17.1512 11.6403 17.1344 12.7985C17.1344 13.9646 16.2935 14.9139 15.2171 14.9139Z" fill="#5E6DFE"/>
</svg>
