<svg width="24" height="24" viewBox="0 0 24 24" fill="none" xmlns="http://www.w3.org/2000/svg">
<path d="M22.1614 12.1594C22.1614 10.937 21.1693 9.94488 19.9468 9.94488C19.3445 9.94488 18.813 10.1752 18.4232 10.565C16.9173 9.48425 14.8268 8.77559 12.5236 8.68701L13.5335 3.95669L16.811 4.64764C16.8465 5.48032 17.5374 6.15354 18.3878 6.15354C19.2559 6.15354 19.9646 5.44488 19.9646 4.57677C19.9646 3.70866 19.2559 3 18.3878 3C17.7677 3 17.2362 3.35433 16.9882 3.88583L13.3209 3.1063C13.2146 3.08858 13.1083 3.1063 13.0197 3.15945C12.9311 3.2126 12.878 3.30118 12.8425 3.40748L11.7264 8.68701C9.37008 8.75787 7.26181 9.44882 5.73819 10.565C5.34842 10.1929 4.79921 9.94488 4.21457 9.94488C2.99213 9.94488 2 10.937 2 12.1594C2 13.063 2.5315 13.8248 3.31102 14.1791C3.27559 14.3917 3.25787 14.622 3.25787 14.8524C3.25787 18.2539 7.20866 21 12.0984 21C16.9882 21 20.939 18.2539 20.939 14.8524C20.939 14.622 20.9213 14.4094 20.8858 14.1968C21.6122 13.8425 22.1614 13.063 22.1614 12.1594ZM7.01378 13.7362C7.01378 12.8681 7.72244 12.1594 8.59055 12.1594C9.45866 12.1594 10.1673 12.8681 10.1673 13.7362C10.1673 14.6043 9.45866 15.313 8.59055 15.313C7.72244 15.313 7.01378 14.6043 7.01378 13.7362ZM15.8189 17.8996C14.7382 18.9803 12.6831 19.0512 12.0807 19.0512C11.4783 19.0512 9.40551 18.9626 8.34252 17.8996C8.18307 17.7402 8.18307 17.4744 8.34252 17.315C8.50197 17.1555 8.76772 17.1555 8.92716 17.315C9.60039 17.9882 11.0532 18.2362 12.0984 18.2362C13.1437 18.2362 14.5787 17.9882 15.2697 17.315C15.4291 17.1555 15.6949 17.1555 15.8543 17.315C15.9783 17.4921 15.9783 17.7402 15.8189 17.8996ZM15.5354 15.313C14.6673 15.313 13.9587 14.6043 13.9587 13.7362C13.9587 12.8681 14.6673 12.1594 15.5354 12.1594C16.4035 12.1594 17.1122 12.8681 17.1122 13.7362C17.1122 14.6043 16.4035 15.313 15.5354 15.313Z" fill="#FF6B36"/>
</svg>
