<svg width="18" height="18" viewBox="0 0 18 18" fill="none" xmlns="http://www.w3.org/2000/svg">
<path fill-rule="evenodd" clip-rule="evenodd" d="M4.41235 16.3041L4.58765 16.3996C6.19714 17.276 7.00189 17.7143 7.85518 17.886C8.61032 18.038 9.38968 18.038 10.1448 17.886C10.9981 17.7143 11.8029 17.2761 13.4123 16.3996L13.5877 16.3041C15.0869 15.4876 15.8365 15.0794 16.4005 14.5199C17.0429 13.8827 17.5141 13.1027 17.7728 12.2483C18 11.498 18 10.6654 18 9.00002C18 7.33466 18 6.50196 17.7728 5.75174C17.5141 4.8973 17.0429 4.11731 16.4005 3.4801C15.8365 2.92061 15.0869 2.51238 13.5877 1.69591L13.4124 1.60045C11.8029 0.723959 10.9981 0.285706 10.1448 0.11398C9.38968 -0.0379934 8.61032 -0.0379934 7.85518 0.11398C7.00189 0.285707 6.19714 0.723954 4.58765 1.60045L4.41235 1.69591C2.9131 2.51237 2.16347 2.92061 1.59946 3.4801C0.957084 4.11731 0.485898 4.8973 0.227169 5.75174C0 6.50196 0 7.33464 0 9C0 10.6654 0 11.498 0.227169 12.2483C0.485899 13.1027 0.957085 13.8827 1.59946 14.5199C2.16347 15.0794 2.91312 15.4876 4.41235 16.3041ZM9 5.62359C7.07391 5.62359 5.5125 7.13525 5.5125 8.99998C5.5125 10.8647 7.07391 12.3764 9 12.3764C10.9261 12.3764 12.4875 10.8647 12.4875 8.99998C12.4875 7.13525 10.9261 5.62359 9 5.62359ZM6.8625 8.99998C6.8625 7.85708 7.81949 6.93058 9 6.93058C10.1805 6.93058 11.1375 7.85708 11.1375 8.99998C11.1375 10.1429 10.1805 11.0694 9 11.0694C7.81949 11.0694 6.8625 10.1429 6.8625 8.99998Z" fill="white"/>
</svg>
