<svg width="24" height="24" viewBox="0 0 24 24" fill="none" xmlns="http://www.w3.org/2000/svg">
<path fillRule="evenodd" clipRule="evenodd" d="M14.6017 16.1268L14.194 16.2177V16.7661C14.194 17.7066 13.6095 18.5066 12.7939 18.8032V20.28C12.7939 20.6776 12.4804 21 12.0938 21C11.7072 21 11.3938 20.6776 11.3938 20.28V18.8032C10.5781 18.5066 9.99366 17.7066 9.99366 16.7661V16.2578C9.93281 16.2454 9.87205 16.2324 9.81138 16.2189L9.39826 16.1268C7.38279 15.6776 5.78798 14.0942 5.28048 12.0384C4.90651 10.5235 4.90651 8.93652 5.28048 7.42165C5.78798 5.36585 7.38279 3.7824 9.39826 3.33318L9.81137 3.24111C11.2537 2.91963 12.7463 2.91963 14.1886 3.24111L14.6017 3.33318C16.6172 3.7824 18.212 5.36586 18.7195 7.42166C19.0935 8.93653 19.0935 10.5235 18.7195 12.0384C18.212 14.0942 16.6172 15.6776 14.6017 16.1268ZM12.7939 16.4286C12.7127 16.435 12.6314 16.4405 12.5501 16.445C12.1649 16.4661 11.7789 16.465 11.3938 16.4417V16.7661C11.3938 17.1637 11.7072 17.4861 12.0938 17.4861C12.4804 17.4861 12.7939 17.1637 12.7939 16.7661V16.4286ZM12.817 6.87022C13.0586 7.06894 13.0977 7.43142 12.9045 7.67982L11.7656 9.144H13.4006C13.6159 9.144 13.8121 9.27092 13.9053 9.47048C13.9986 9.67005 13.9724 9.90693 13.8379 10.0798L11.9711 12.4798C11.7779 12.7282 11.4255 12.7685 11.1839 12.5698C10.9424 12.3711 10.9033 12.0086 11.0965 11.7602L12.2354 10.296H10.6004C10.3851 10.296 10.1889 10.1691 10.0956 9.96952C10.0024 9.76995 10.0286 9.53307 10.1631 9.36018L12.0299 6.96018C12.2231 6.71177 12.5755 6.67149 12.817 6.87022Z" fill="white"/>
</svg>
