<svg width="48" height="48" viewBox="0 0 48 48" fill="none" xmlns="http://www.w3.org/2000/svg">
<mask id="mask0_44_3205" style="mask-type:alpha" maskUnits="userSpaceOnUse" x="0" y="0" width="48" height="48">
<rect width="48" height="48" rx="15" fill="#F47459"/>
</mask>
<g mask="url(#mask0_44_3205)">
<rect width="48" height="48" fill="#454A75"/>
<path d="M40.3979 28.0051C39.6644 28.0051 38.9609 28.302 38.4422 28.8304C37.9235 29.3587 37.6321 30.0754 37.6321 30.8227C37.6321 31.5699 37.9235 32.2866 38.4422 32.815C38.9609 33.3434 39.6644 33.6402 40.3979 33.6402C41.1315 33.6402 41.835 33.3434 42.3537 32.815C42.8724 32.2866 43.1638 31.5699 43.1638 30.8227C43.1638 30.0754 42.8724 29.3587 42.3537 28.8304C41.835 28.302 41.1315 28.0051 40.3979 28.0051ZM40.3979 32.2149C40.0383 32.2105 39.6949 32.0619 39.4421 31.8013C39.1893 31.5407 39.0475 31.1891 39.0476 30.8227C39.0476 30.0603 39.6495 29.4305 40.3979 29.4305C41.1464 29.4305 41.7483 30.0603 41.7483 30.8227C41.7483 31.5851 41.1464 32.2149 40.3979 32.2149ZM22.6313 28.0051C21.8977 28.0051 21.1942 28.302 20.6755 28.8304C20.1568 29.3587 19.8654 30.0754 19.8654 30.8227C19.8654 31.5699 20.1568 32.2866 20.6755 32.815C21.1942 33.3434 21.8977 33.6402 22.6313 33.6402C23.3648 33.6402 24.0683 33.3434 24.587 32.815C25.1057 32.2866 25.3971 31.5699 25.3971 30.8227C25.3971 30.0754 25.1057 29.3587 24.587 28.8304C24.0683 28.302 23.3648 28.0051 22.6313 28.0051ZM22.6313 32.2149C22.2716 32.2105 21.9282 32.0619 21.6754 31.8013C21.4226 31.5407 21.2808 31.1891 21.2809 30.8227C21.2809 30.0603 21.8829 29.4305 22.6313 29.4305C23.3797 29.4305 23.9817 30.0603 23.9817 30.8227C23.9817 31.5851 23.3797 32.2149 22.6313 32.2149ZM30.6035 35.1485H28.7162V33.2093H30.6198V35.1485H30.6035ZM34.069 35.1485H32.1654V33.2093H34.069V35.1485ZM48.9396 42.8554L47.7194 33.1762L47.5079 31.5022L47.4428 30.889C47.2413 29.0258 46.3801 27.3014 45.0205 26.0384C43.6609 24.7754 41.896 24.0604 40.0563 24.0274V17L36.5745 19.0386V17.9613L35.1265 18.8397L33.4833 19.801V18.5082L30.4245 20.2651V17.8453L27.0079 19.8673V18.4419L22.5011 21.1269V24.0605C20.7422 24.1999 19.0861 24.9597 17.818 26.2091C16.5499 27.4586 15.7492 29.1194 15.5539 30.9055L15.4888 31.5022C15.4237 32.0491 15.3749 32.6292 15.2773 33.2093L14.0571 42.8719C13.8777 44.0998 14.1242 45.353 14.754 46.4157C15.3839 47.4784 16.3577 48.2842 17.5079 48.6944C18.658 49.1046 19.9126 49.0935 21.0556 48.663C22.1986 48.2325 23.1585 47.4096 23.7702 46.3359L26.7313 41.2311C27.1055 40.5847 27.7888 40.1704 28.521 40.1704H34.4757C35.2079 40.1704 35.8912 40.5682 36.2654 41.2311L39.2265 46.3359C39.8381 47.4126 40.7996 48.2378 41.945 48.6691C43.0903 49.1003 44.3476 49.1104 45.4995 48.6976C46.6514 48.2848 47.6256 47.4751 48.2537 46.4084C48.8819 45.3417 49.1245 44.0849 48.9396 42.8554ZM46.613 46.2033C46.2127 46.6649 45.7105 47.0233 45.1479 47.2489C44.5852 47.4745 43.978 47.5609 43.3761 47.501C42.7743 47.4412 42.195 47.2368 41.6858 46.9046C41.1765 46.5724 40.7519 46.1219 40.4468 45.5901L37.4856 40.4853C37.1786 39.9535 36.7413 39.5121 36.2166 39.2041C35.6918 38.8961 35.0976 38.7322 34.492 38.7284H28.521C27.3007 38.7284 26.1456 39.408 25.5273 40.4853L22.5662 45.5901C22.2661 46.1278 21.8435 46.5842 21.3341 46.9209C20.8248 47.2576 20.2434 47.4647 19.6391 47.5248C19.0347 47.5849 18.4251 47.4962 17.8614 47.2663C17.2977 47.0363 16.7965 46.6717 16.3999 46.2033C16.0307 45.7744 15.7555 45.2701 15.5928 44.7242C15.43 44.1783 15.3835 43.6033 15.4563 43.0377L16.6765 33.3916C16.7741 32.8115 16.8229 32.2149 16.888 31.6514L16.9531 31.0713C17.0786 29.9568 17.4947 28.8969 18.1583 28.0016C18.8219 27.1064 19.7088 26.4085 20.7267 25.9806C21.7447 25.5526 22.8565 25.4101 23.9468 25.5679C25.037 25.7258 26.0659 26.1782 26.9265 26.8781C28.1471 27.9273 29.6898 28.5078 31.2868 28.5189H31.7587C33.3043 28.5189 34.8499 27.9388 36.119 26.8781C37.2058 25.9686 38.5684 25.4708 39.9749 25.4693C41.4898 25.4765 42.9491 26.0516 44.0744 27.0848C45.1997 28.118 45.9123 29.5371 46.0761 31.0713L46.1412 31.6679L46.3527 33.3751L47.573 43.0377C47.7031 44.1813 47.3615 45.3415 46.613 46.2033Z" fill="white"/>
</g>
</svg>
