<svg width="24" height="24" viewBox="0 0 24 24" fill="none" xmlns="http://www.w3.org/2000/svg">
<path d="M6.78711 13.2749C3.45826 15.1242 3.15411 18.9966 3.46234 20.5377C5.00348 20.8459 8.8758 20.5417 10.7252 17.2129M10.7252 17.2129C10.2739 16.1221 9.68294 15.2252 9.27162 14.7284C8.25988 13.8908 5.58911 12.308 3 12.6779C3.15411 11.5991 4.47949 9.44149 8.54809 9.44149C12.5807 1.88596 17.9526 2.48619 20.1989 3.80117C21.5138 6.0475 22.114 11.4194 14.5585 15.4519C14.5585 19.5205 12.4009 20.8459 11.3221 21C11.5104 19.6823 11.1928 18.3434 10.7252 17.2129Z" stroke="white" strokeWidth="1.5"/>
<circle cx="16" cy="7.57305" r="1.06942" transform="rotate(45 16 7.57305)" stroke="white" strokeWidth="1.5"/>
</svg>
