<svg width="48" height="48" viewBox="0 0 48 48" fill="none" xmlns="http://www.w3.org/2000/svg">
  <mask id="mask0_44_3157" style="mask-type:alpha" maskUnits="userSpaceOnUse" x="0" y="0" width="48" height="48">
  <rect width="48" height="48" rx="15" fill="#F47459"/>
  </mask>
  <g mask="url(#mask0_44_3157)">
  <rect width="48" height="48" rx="15" fill="#F47459"/>
  <path d="M46.9216 26.6784C47.5457 22.5804 44.3689 20.3775 40.0248 18.908L41.434 13.357L37.9933 12.515L36.6214 17.9199C35.7168 17.6983 34.7879 17.4896 33.8647 17.2826L35.2465 11.842L31.8079 11L30.3978 16.5493C29.6493 16.3819 28.9141 16.2165 28.2008 16.0422L28.2048 16.0247L23.4599 14.8611L22.5446 18.4702C22.5446 18.4702 25.0974 19.0449 25.0436 19.0802C26.4369 19.4218 26.6889 20.3276 26.647 21.0455L25.0417 27.3695C25.1377 27.3935 25.2621 27.4281 25.3995 27.4823C25.2847 27.4543 25.1625 27.4237 25.0358 27.3939L22.7857 36.2529C22.6154 36.6687 22.1832 37.2926 21.2091 37.0556C21.2436 37.1047 18.7083 36.4427 18.7083 36.4427L17 40.3107L21.4776 41.4069C22.3106 41.6121 23.1269 41.8267 23.9307 42.0286L22.5069 47.6433L25.9437 48.4853L27.3537 42.9302C28.2926 43.1805 29.2038 43.4114 30.0957 43.629L28.6905 49.158L32.1314 50L33.5551 44.3958C39.4223 45.4863 43.834 45.0466 45.6909 39.8348C47.1872 35.6387 45.6164 33.2183 42.5297 31.64C44.7779 31.1308 46.4713 29.6786 46.9228 26.6788L46.9218 26.6781L46.9216 26.6784ZM39.0603 37.5045C37.9969 41.7006 30.8031 39.4323 28.4707 38.8635L30.3601 31.4249C32.6923 31.9967 40.1716 33.1283 39.0604 37.5045H39.0603ZM40.1244 26.6175C39.1544 30.4344 33.1668 28.4953 31.2245 28.0198L32.9376 21.2734C34.8799 21.7489 41.1349 22.6364 40.1247 26.6175H40.1244Z" fill="white"/>
  </g>
  </svg>
  