<svg
            width="11"
            height="15"
            viewBox="0 0 11 15"
            fill="none"
            xmlns="http://www.w3.org/2000/svg"
          >
            <path
              d="M5.25 15C8.1495 15 10.5 12.5823 10.5 9.6C10.5 8.26123 10.0263 7.03625 9.242 6.09267C9.05735 5.87053 8.73275 5.89364 8.57163 6.1334C8.14628 6.76634 7.4759 7.7514 6.415 8.02647C6.11681 8.10379 5.87778 7.82436 5.91118 7.51812C6.09626 5.82103 6.07554 2.99062 5.03123 0.980534C4.82748 0.588351 4.26553 0.733025 4.14778 1.159C3.80706 2.39161 3.05559 4.14436 1.61877 5.7C0.621171 6.68295 0 8.06686 0 9.6C0 12.5823 2.3505 15 5.25 15Z"
              fill="url(#paint0_linear_44_3155)"
            />
            <defs>
              <linearGradient
                id="paint0_linear_44_3155"
                x1="5.25"
                y1="0"
                x2="5.25"
                y2="15"
                gradientUnits="userSpaceOnUse"
              >
                <stop stop-color="#FC8223" />
                <stop offset="1" stop-color="#FC9823" />
              </linearGradient>
            </defs>
          </svg>