<svg fill="none" xmlns="http://www.w3.org/2000/svg">
<path d="M10.87 3.14669L10.6784 2.42157V2.42157L10.87 3.14669ZM13.13 3.14669L12.9384 3.87181V3.87181L13.13 3.14669ZM3.3835 16.403L4.10471 16.1972L3.3835 16.403ZM3.37998 10.9361L4.10118 11.1419L3.37998 10.9361ZM20.62 10.9361L21.3412 10.7303V10.7303L20.62 10.9361ZM20.6165 16.403L21.3377 16.6088L20.6165 16.403ZM15.9929 20.6187L15.8509 19.8822L15.9929 20.6187ZM8.00711 20.6187L8.1491 19.8822L8.00711 20.6187ZM8.77297 6.56041L8.91496 7.29685L8.77297 6.56041ZM15.227 6.56041L15.369 5.82397L15.227 6.56041ZM16.3006 6.7674L16.1586 7.50384V7.50384L16.3006 6.7674ZM20.527 10.6102L19.8058 10.816V10.816L20.527 10.6102ZM7.69941 6.7674L7.55742 6.03096L7.69941 6.7674ZM3.47297 10.6102L2.75176 10.4044H2.75176L3.47297 10.6102ZM11.0616 3.87181C11.6763 3.7094 12.3237 3.7094 12.9384 3.87181L13.3216 2.42157C12.4557 2.19281 11.5443 2.19281 10.6784 2.42157L11.0616 3.87181ZM16.927 7.06315C16.927 4.88128 15.4419 2.98176 13.3216 2.42157L12.9384 3.87181C14.4126 4.26128 15.427 5.57456 15.427 7.06315H16.927ZM8.57297 7.06315C8.57297 5.57455 9.58742 4.26128 11.0616 3.87181L10.6784 2.42157C8.55808 2.98176 7.07297 4.88127 7.07297 7.06315H8.57297ZM7.8414 7.50384L8.91496 7.29685L8.63098 5.82397L7.55742 6.03096L7.8414 7.50384ZM15.085 7.29685L16.1586 7.50384L16.4426 6.03096L15.369 5.82397L15.085 7.29685ZM19.8058 10.816L19.8988 11.1419L21.3412 10.7303L21.2482 10.4044L19.8058 10.816ZM4.10118 11.1419L4.19418 10.816L2.75176 10.4044L2.65877 10.7303L4.10118 11.1419ZM4.10471 16.1972C3.63385 14.5472 3.63087 12.79 4.10118 11.1419L2.65877 10.7303C2.11113 12.6493 2.1152 14.6917 2.66229 16.6088L4.10471 16.1972ZM19.8988 11.1419C20.3691 12.79 20.3662 14.5472 19.8953 16.1972L21.3377 16.6088C21.8848 14.6917 21.8889 12.6493 21.3412 10.7303L19.8988 11.1419ZM15.8509 19.8822C13.3077 20.3726 10.6923 20.3726 8.1491 19.8822L7.86512 21.3551C10.5959 21.8816 13.4041 21.8816 16.1349 21.3551L15.8509 19.8822ZM8.91496 7.29685C10.9524 6.90402 13.0477 6.90402 15.085 7.29685L15.369 5.82397C13.144 5.39498 10.856 5.39498 8.63098 5.82397L8.91496 7.29685ZM8.1491 19.8822C6.20493 19.5074 4.63939 18.0709 4.10471 16.1972L2.66229 16.6088C3.3533 19.0303 5.36966 20.874 7.86512 21.3551L8.1491 19.8822ZM16.1349 21.3551C18.6303 20.874 20.6467 19.0303 21.3377 16.6088L19.8953 16.1972C19.3606 18.0708 17.7951 19.5074 15.8509 19.8822L16.1349 21.3551ZM16.1586 7.50384C17.9164 7.84275 19.3239 9.12718 19.8058 10.816L21.2482 10.4044C20.6087 8.16326 18.747 6.47528 16.4426 6.03096L16.1586 7.50384ZM7.55742 6.03096C5.25297 6.47528 3.39132 8.16325 2.75176 10.4044L4.19418 10.816C4.67613 9.12717 6.08361 7.84275 7.8414 7.50384L7.55742 6.03096ZM3.38575 11.7917C8.93989 13.8462 15.0601 13.8462 20.6143 11.7917L20.0939 10.3849C14.8755 12.3151 9.12447 12.3151 3.90612 10.3849L3.38575 11.7917Z" fill="url(#paint0_linear_1041_9943)"/>
<path d="M8 10.5V14" stroke="url(#paint1_linear_1041_9943)" strokeWidth="1.5" strokeLinecap="round"/>
<path d="M16 10.5V14" stroke="url(#paint2_linear_1041_9943)" strokeWidth="1.5" strokeLinecap="round"/>
<defs>
<linearGradient id="paint0_linear_1041_9943" x1="12" y1="3" x2="12" y2="21" gradientUnits="userSpaceOnUse">
<stop stop-color="white"/>
<stop offset="1" stop-color="white" stop-opacity="0.8"/>
</linearGradient>
<linearGradient id="paint1_linear_1041_9943" x1="8.5" y1="10.5" x2="8.5" y2="14" gradientUnits="userSpaceOnUse">
<stop stop-color="white"/>
<stop offset="1" stop-color="white" stop-opacity="0.8"/>
</linearGradient>
<linearGradient id="paint2_linear_1041_9943" x1="16.5" y1="10.5" x2="16.5" y2="14" gradientUnits="userSpaceOnUse">
<stop stop-color="white"/>
<stop offset="1" stop-color="white" stop-opacity="0.8"/>
</linearGradient>
</defs>
</svg>
