<svg width="129" height="53" viewBox="0 0 129 53" fill="none" xmlns="http://www.w3.org/2000/svg">
<g clip-path="url(#clip0_44_3339)">
<path d="M21.2682 44.3216L8.15537 36.5963C7.86245 36.4238 7.61691 36.1712 7.44354 35.864C7.27012 35.5569 7.17497 35.206 7.16767 34.8467L6.83504 18.8568C6.82749 18.4975 6.90785 18.1424 7.06806 17.8272C7.22833 17.5119 7.46274 17.2476 7.74792 17.0607L20.4403 8.75427C20.7253 8.56743 21.0512 8.46478 21.3848 8.4566C21.7185 8.44848 22.0482 8.53509 22.3409 8.70778L36.3349 16.9506L36.882 17.2358C37.172 17.3864 37.4928 17.4553 37.8142 17.436C38.1357 17.4168 38.4474 17.3099 38.7201 17.1257C38.9927 16.9414 39.2174 16.6856 39.3732 16.3823C39.529 16.0791 39.6107 15.7382 39.6106 15.3916V11.8273C39.6107 11.4599 39.519 11.0992 39.3449 10.7832C39.1709 10.4672 38.9209 10.2074 38.6214 10.0312L22.1638 0.334687C21.871 0.162468 21.5413 0.0761093 21.2077 0.0842693C20.8741 0.0924286 20.5484 0.194818 20.2632 0.381177L0.92009 13.0423C0.634842 13.2291 0.400307 13.4934 0.240064 13.8087C0.0798203 14.124 -0.000484105 14.4791 0.0072204 14.8384L0.52269 39.1967C0.530517 39.5551 0.625592 39.9051 0.798414 40.2115C0.971243 40.518 1.21576 40.7703 1.50756 40.9432L21.4079 52.6668C21.6903 52.8334 22.0075 52.9201 22.3296 52.9188C22.6517 52.9174 22.9682 52.8281 23.2494 52.659L35.2953 45.4297L39.0879 43.2895C39.3953 43.116 39.6527 42.8554 39.8324 42.5358C40.0121 42.2163 40.1072 41.8499 40.1073 41.4763V38.3397C40.1072 37.9896 40.0237 37.6454 39.8648 37.3399C39.7058 37.0345 39.4767 36.778 39.1994 36.595C38.9221 36.412 38.6057 36.3086 38.2807 36.2947C37.9556 36.2809 37.6328 36.3569 37.3428 36.5157L23.045 44.3433C22.7695 44.4955 22.4637 44.5731 22.1541 44.5693C21.8445 44.5655 21.5404 44.4805 21.2682 44.3216Z" fill="white"/>
<path d="M16.4216 2.94441L20.5784 0.209175C20.7753 0.0790989 21.0007 0.00755376 21.2317 0.00183659C21.4626 -0.00388061 21.6909 0.0564363 21.893 0.176632L39.6034 10.6372C39.8111 10.7605 39.9842 10.9417 40.1048 11.1617C40.2254 11.3816 40.2889 11.6323 40.2887 11.8878V16.8143C40.2897 17.0597 40.2314 17.3012 40.1197 17.5151C40.0079 17.7291 39.8465 17.9082 39.6512 18.0348C39.4559 18.1615 39.2333 18.2315 39.0054 18.2378C38.7774 18.2441 38.5518 18.1867 38.3507 18.0711L16.482 5.42394C16.2761 5.30469 16.103 5.12897 15.9804 4.91458C15.8577 4.70018 15.7899 4.45472 15.7838 4.20305C15.7776 3.95138 15.8334 3.70242 15.9454 3.48139C16.0574 3.26037 16.2216 3.07512 16.4216 2.94441Z" fill="white"/>
<path d="M40.5278 37.3387L40.5709 42.0265C40.5728 42.314 40.5007 42.5965 40.3627 42.8425C40.2248 43.0887 40.0263 43.289 39.7891 43.4213L22.9384 52.8249C22.7269 52.9437 22.4913 53.004 22.2528 53.0004C22.0143 52.9969 21.7804 52.9297 21.572 52.8048L17.7103 50.505C17.482 50.369 17.292 50.1692 17.1606 49.9266C17.0291 49.684 16.9609 49.4077 16.9633 49.1269C16.9656 48.8461 17.0385 48.5712 17.174 48.3312C17.3095 48.0912 17.5028 47.8951 17.7333 47.7636L38.4068 35.978C38.6262 35.8543 38.8714 35.7931 39.119 35.8004C39.3665 35.8077 39.6083 35.8832 39.8211 36.0197C40.0337 36.1562 40.2104 36.3491 40.3342 36.58C40.4579 36.8109 40.5246 37.0721 40.5278 37.3387Z" fill="white"/>
<path d="M40.5278 24.5426L40.5709 29.2305C40.5737 29.5182 40.5021 29.8011 40.364 30.0474C40.226 30.2937 40.0269 30.4938 39.7891 30.6252L22.9327 40.0289C22.7207 40.1471 22.485 40.2071 22.2464 40.2035C22.0078 40.2001 21.7736 40.1331 21.5648 40.0087L17.7031 37.709C17.4748 37.573 17.2848 37.3731 17.1534 37.1305C17.0219 36.888 16.9537 36.6117 16.9561 36.3309C16.9584 36.05 17.0312 35.7752 17.1668 35.5352C17.3023 35.2952 17.4956 35.0991 17.7261 34.9675L38.4011 23.182C38.6206 23.0563 38.8665 22.9936 39.115 22.9999C39.3636 23.0063 39.6064 23.0815 39.8202 23.2182C40.0339 23.355 40.2113 23.5487 40.3352 23.7807C40.4592 24.0126 40.5255 24.275 40.5278 24.5426Z" fill="white"/>
<path d="M53.7658 19.3217C53.758 19.2395 53.7683 19.1563 53.7958 19.079C53.8233 19.0018 53.8673 18.9326 53.9242 18.877C54.0185 18.7949 54.1355 18.7491 54.2568 18.7468H56.2063C56.6001 18.7494 56.9881 18.8485 57.341 19.0366C57.7202 19.2353 58.0422 19.5412 58.2725 19.9215C58.5263 20.3508 58.6542 20.8525 58.6397 21.3611C58.6231 21.7319 58.541 22.0959 58.3978 22.4335C58.2766 22.7112 58.093 22.9519 57.8636 23.134C57.625 23.3164 57.3539 23.4435 57.0674 23.5075C56.7134 23.5883 56.3522 23.6262 55.9904 23.6206L58.5922 26.6953C58.6572 26.7535 58.7095 26.8265 58.7454 26.909C58.7812 26.9915 58.7997 27.0815 58.7995 27.1726C58.799 27.2262 58.7864 27.2789 58.7629 27.3261C58.7393 27.3733 58.7055 27.4137 58.6642 27.4438C58.5678 27.5193 58.4507 27.558 58.3316 27.5538C58.2433 27.558 58.1554 27.5405 58.0745 27.5023C57.9936 27.4641 57.922 27.4064 57.8651 27.3337L54.7579 23.6578V27.0486C54.7626 27.1218 54.7522 27.1953 54.7273 27.2637C54.7024 27.332 54.6636 27.3935 54.6138 27.4438C54.5159 27.5354 54.3894 27.584 54.2597 27.5801C54.1926 27.5821 54.1259 27.5688 54.0639 27.5413C54.0018 27.5138 53.9459 27.4725 53.8996 27.4202C53.8533 27.3679 53.8178 27.3057 53.7952 27.2377C53.7726 27.1697 53.7636 27.0973 53.7687 27.0254L53.7658 19.3217ZM54.7579 19.6797V22.7993H56.1747C56.4853 22.818 56.7948 22.7457 57.0702 22.5901C57.2688 22.4664 57.4214 22.2725 57.5022 22.0415C57.5876 21.7757 57.6319 21.4967 57.6333 21.2155C57.6393 20.9292 57.5694 20.647 57.4317 20.4019C57.2999 20.1712 57.1103 19.9853 56.8845 19.8657C56.6492 19.7403 56.3897 19.6765 56.1272 19.6797H54.7579Z" fill="white"/>
<path d="M60.2164 19.2473C60.2164 18.8629 60.3863 18.6708 60.729 18.6708C60.7917 18.6693 60.854 18.6812 60.9124 18.706C60.9707 18.7308 61.0239 18.7678 61.0688 18.8149C61.1191 18.8724 61.1578 18.9406 61.1825 19.0149C61.2073 19.0893 61.2176 19.1684 61.2128 19.2473V26.9771C61.222 27.0634 61.2129 27.1507 61.1863 27.2326C61.1596 27.3145 61.116 27.3887 61.0587 27.4499C60.9675 27.5324 60.8525 27.5784 60.7333 27.58C60.3906 27.58 60.2207 27.3879 60.2207 27.002L60.2164 19.2473Z" fill="white"/>
<path d="M63.0458 19.2473C63.042 19.1702 63.0533 19.0931 63.0779 19.0207C63.1024 18.9483 63.1408 18.882 63.1899 18.8258C63.2345 18.776 63.2887 18.7367 63.3484 18.71C63.4082 18.6834 63.4724 18.67 63.5366 18.6708C63.6687 18.6677 63.7965 18.7206 63.8921 18.818C63.9418 18.8706 63.9796 18.9339 64.0048 19.0036C64.0293 19.0733 64.04 19.1479 64.0362 19.2225V22.4412L67.6363 18.8939C67.7552 18.7657 67.9132 18.6867 68.0812 18.6708C68.1384 18.6697 68.1951 18.682 68.2473 18.7069C68.3002 18.7318 68.3467 18.7686 68.3845 18.8149C68.4663 18.9136 68.5097 19.0423 68.5059 19.1744C68.5084 19.2614 68.4921 19.3478 68.4581 19.4267C68.4241 19.5056 68.3731 19.5747 68.3096 19.6285L64.9619 22.8735L68.6614 26.7199C68.7199 26.7712 68.7658 26.8371 68.7954 26.9119C68.825 26.9867 68.8375 27.0682 68.8313 27.1492C68.83 27.2107 68.8162 27.2711 68.7916 27.3265C68.7664 27.3818 68.7312 27.4308 68.6872 27.47C68.5896 27.5626 68.4625 27.6109 68.3329 27.6048C68.2366 27.6001 68.1416 27.5735 68.0554 27.5267C67.9692 27.4801 67.893 27.4142 67.832 27.3336L64.0306 23.3261V27.0253C64.035 27.1003 64.0249 27.1756 63.9997 27.2459C63.9752 27.3162 63.9362 27.38 63.8865 27.4328C63.8399 27.4825 63.7845 27.5218 63.7241 27.5484C63.6631 27.5751 63.5983 27.5884 63.5322 27.5878C63.4686 27.5878 63.4051 27.5742 63.3459 27.5475C63.2868 27.5209 63.2333 27.4819 63.1886 27.4328C63.1395 27.38 63.1011 27.3167 63.0766 27.247C63.0514 27.1774 63.0407 27.1028 63.0445 27.0283L63.0458 19.2473Z" fill="white"/>
<path d="M69.9167 19.2473C69.913 19.1702 69.9243 19.0931 69.9488 19.0207C69.9734 18.9483 70.0117 18.882 70.0608 18.8258C70.1061 18.776 70.1596 18.7367 70.2194 18.71C70.2792 18.6834 70.3434 18.67 70.4076 18.6708C70.5397 18.6677 70.6674 18.7206 70.7631 18.818C70.8128 18.8706 70.8506 18.9339 70.8757 19.0036C70.9003 19.0733 70.9116 19.1479 70.9072 19.2225V22.4412L74.5072 18.8939C74.6262 18.7657 74.7841 18.6867 74.9521 18.6708C75.0094 18.6697 75.066 18.682 75.1183 18.7069C75.1711 18.7318 75.2177 18.7686 75.2554 18.8149C75.3366 18.914 75.38 19.0425 75.3769 19.1744C75.3794 19.2614 75.363 19.3478 75.3291 19.4267C75.2951 19.5056 75.2441 19.5747 75.1806 19.6285L71.8335 22.8735L75.5323 26.7199C75.5908 26.7712 75.6368 26.8371 75.6664 26.9119C75.6966 26.9867 75.7085 27.0682 75.7022 27.1492C75.7016 27.2101 75.6896 27.2702 75.6657 27.3255C75.6424 27.3808 75.6078 27.4301 75.565 27.47C75.4681 27.5626 75.341 27.6109 75.2114 27.6048C75.1145 27.6001 75.0201 27.5735 74.9339 27.5267C74.847 27.4801 74.7709 27.4142 74.7099 27.3336L70.9091 23.3261V27.0253C70.9135 27.1003 70.9028 27.1756 70.8782 27.2459C70.8531 27.3162 70.8147 27.38 70.765 27.4328C70.7184 27.4825 70.663 27.5218 70.602 27.5484C70.5416 27.5751 70.4761 27.5884 70.4107 27.5878C70.3465 27.5878 70.283 27.5742 70.2238 27.5475C70.1653 27.5209 70.1112 27.4819 70.0665 27.4328C70.0174 27.38 69.9797 27.3167 69.9545 27.247C69.9299 27.1774 69.9186 27.1028 69.9224 27.0283L69.9167 19.2473Z" fill="white"/>
<path d="M76.7877 19.3464C76.7795 19.1886 76.8248 19.0329 76.9142 18.9078C76.9488 18.8607 76.9922 18.8223 77.0419 18.7955C77.0923 18.7687 77.147 18.7541 77.2024 18.7529H80.2738C80.3324 18.75 80.3902 18.7617 80.4444 18.787C80.4978 18.8122 80.5457 18.8504 80.5834 18.8986C80.6577 19.0009 80.6986 19.1272 80.6986 19.2573C80.6986 19.3874 80.6577 19.5137 80.5834 19.616C80.5419 19.6649 80.4903 19.7032 80.4337 19.7281C80.3764 19.7531 80.3147 19.764 80.2537 19.7602H77.7769V22.6457H80.036C80.097 22.6426 80.158 22.6539 80.2141 22.6787C80.2707 22.7036 80.3217 22.7416 80.3632 22.7898C80.4437 22.8891 80.4859 23.0176 80.4821 23.1494C80.4853 23.2817 80.4406 23.4101 80.3569 23.5074C80.3141 23.5584 80.2606 23.5987 80.2015 23.6255C80.1423 23.6523 80.0788 23.6648 80.0146 23.6623H77.78V26.4998H80.2795C80.3393 26.4974 80.3984 26.5102 80.4525 26.5371C80.5073 26.564 80.5545 26.6044 80.5916 26.6548C80.6684 26.7638 80.7074 26.8979 80.703 27.0345C80.7042 27.0973 80.6936 27.1598 80.6715 27.2182C80.6501 27.2765 80.6174 27.3295 80.5759 27.3739C80.5268 27.423 80.4689 27.4609 80.406 27.4852C80.3431 27.5094 80.2757 27.5195 80.209 27.5149H77.2773C77.0715 27.5149 76.9374 27.4483 76.8783 27.3165C76.8204 27.199 76.7896 27.0684 76.7877 26.9353V19.3464Z" fill="white"/>
<path d="M82.3599 19.2473C82.3599 18.8629 82.5298 18.6708 82.8727 18.6708C82.935 18.6693 82.9973 18.6812 83.0558 18.706C83.1144 18.7308 83.1672 18.7678 83.2125 18.8149C83.2629 18.8724 83.3012 18.9406 83.3264 19.0149C83.351 19.0893 83.361 19.1684 83.3566 19.2473V26.9771C83.3654 27.0634 83.3566 27.1507 83.3296 27.2326C83.3031 27.3145 83.2597 27.3887 83.2024 27.4499C83.1112 27.5324 82.996 27.5784 82.8771 27.58C82.5342 27.58 82.3643 27.3879 82.3643 27.002L82.3599 19.2473Z" fill="white"/>
<path d="M93.9667 19.6039C94.0561 19.7226 94.1039 19.8711 94.102 20.0238C94.1027 20.0817 94.0926 20.1391 94.0718 20.1924C94.0511 20.2458 94.0202 20.2939 93.9812 20.3337C93.9019 20.4226 93.7956 20.4777 93.6817 20.4887C93.5936 20.4707 93.5093 20.4372 93.4312 20.3895L92.9775 20.0331C92.8221 19.9106 92.6516 19.8125 92.471 19.7417C92.2507 19.66 92.0198 19.6171 91.787 19.6147C91.2552 19.5944 90.7348 19.784 90.3239 20.1478C89.9363 20.5011 89.643 20.9589 89.4744 21.4744C89.302 21.9781 89.2076 22.509 89.195 23.0457C89.1994 23.5706 89.2718 24.0921 89.4096 24.5955C89.5468 25.1305 89.8079 25.6194 90.1685 26.0165C90.3604 26.2207 90.5876 26.382 90.838 26.491C91.0878 26.6001 91.3559 26.6547 91.6252 26.6519C91.9619 26.6631 92.2973 26.6068 92.6144 26.4861C92.9354 26.3408 93.2462 26.171 93.5451 25.9778C93.6439 25.9119 93.7585 25.8775 93.8749 25.8786C93.9277 25.8755 93.9812 25.8863 94.0297 25.9101C94.0781 25.9338 94.1209 25.9698 94.1536 26.015C94.2222 26.1135 94.2575 26.2344 94.2531 26.3575C94.2606 26.4326 94.2512 26.5084 94.226 26.5789C94.2008 26.6494 94.1612 26.7126 94.1096 26.7635C93.7943 27.0682 93.4143 27.2848 93.0033 27.3942C92.5811 27.5179 92.1456 27.582 91.7077 27.5849C91.142 27.593 90.5832 27.4491 90.0823 27.1664C89.6393 26.9097 89.2567 26.5471 88.9647 26.1064C88.6847 25.6824 88.472 25.211 88.3354 24.7117C88.2058 24.2423 88.1385 23.7555 88.1353 23.2658C88.1328 22.6754 88.2096 22.0877 88.3625 21.5209C88.5047 20.9916 88.7356 20.4951 89.0452 20.0564C89.3454 19.6331 89.733 19.2904 90.1773 19.0552C90.6618 18.8053 91.1929 18.6776 91.7303 18.6817C92.0129 18.6834 92.2948 18.7182 92.5698 18.7856C92.8498 18.8512 93.1204 18.9554 93.3752 19.0955C93.6011 19.2215 93.8025 19.3942 93.9667 19.6039Z" fill="white"/>
<path d="M96.6739 25.6134L96.1352 27.1988C96.1069 27.3181 96.0389 27.4224 95.9452 27.4924C95.8508 27.5624 95.7363 27.5936 95.6224 27.58C95.5059 27.5847 95.3914 27.544 95.3002 27.4653C95.2574 27.4271 95.2228 27.3798 95.1982 27.3265C95.1731 27.2732 95.1592 27.2149 95.1561 27.1554C95.1649 27.1073 95.1762 27.053 95.1907 27.0004C95.2052 26.9477 95.2152 26.8965 95.2221 26.8655L97.8475 19.3092C97.9003 19.1232 98.0004 18.9566 98.135 18.8272C98.247 18.7204 98.3911 18.6604 98.5409 18.6583C98.6988 18.6553 98.8518 18.7131 98.9732 18.821C99.1072 18.944 99.2073 19.1051 99.2614 19.2859L101.923 26.8671C101.948 26.9684 101.963 27.0723 101.968 27.177C101.97 27.2373 101.96 27.2974 101.938 27.3526C101.915 27.4077 101.88 27.4565 101.837 27.4948C101.74 27.5743 101.621 27.6148 101.498 27.6094C101.387 27.6091 101.278 27.573 101.185 27.5056C101.088 27.433 101.018 27.326 100.986 27.2034L100.449 25.618L96.6739 25.6134ZM96.9803 24.6835H100.148L98.5711 19.9306H98.5485L96.9803 24.6835Z" fill="white"/>
<path d="M103.226 19.3216C103.219 19.2393 103.229 19.1562 103.257 19.079C103.284 19.0017 103.328 18.9325 103.385 18.8769C103.479 18.7948 103.596 18.749 103.717 18.7467H105.733C106.076 18.7435 106.417 18.8038 106.741 18.9249C107.048 19.0397 107.332 19.2171 107.577 19.4472C107.824 19.6846 108.021 19.9776 108.152 20.3057C108.3 20.6784 108.376 21.0798 108.374 21.4851C108.376 22.2072 108.118 22.9022 107.654 23.4237C107.424 23.6806 107.147 23.8849 106.842 24.0244C106.536 24.1639 106.208 24.2358 105.876 24.2358H104.22V27.0501C104.223 27.1217 104.212 27.1934 104.187 27.2599C104.162 27.3265 104.124 27.3866 104.076 27.4359C103.98 27.5303 103.854 27.5819 103.724 27.5801C103.659 27.5803 103.596 27.5668 103.537 27.5401C103.478 27.5135 103.424 27.4744 103.379 27.4251C103.33 27.3724 103.292 27.3092 103.267 27.2394C103.242 27.1697 103.231 27.0951 103.235 27.0206L103.226 19.3216ZM104.219 19.6796V23.3028H105.645C105.874 23.3137 106.102 23.2736 106.314 23.1851C106.528 23.0967 106.721 22.9618 106.883 22.7889C107.045 22.616 107.173 22.4089 107.258 22.1804C107.342 21.9521 107.381 21.7074 107.373 21.4618C107.385 21.2195 107.349 20.9772 107.266 20.7515C107.183 20.5258 107.056 20.3219 106.894 20.1538C106.566 19.8343 106.136 19.6643 105.693 19.6796H104.219Z" fill="white"/>
<path d="M109.677 19.2473C109.677 18.8629 109.847 18.6708 110.19 18.6708C110.252 18.6693 110.315 18.6812 110.373 18.706C110.432 18.7308 110.484 18.7678 110.53 18.8149C110.579 18.8724 110.618 18.9406 110.643 19.0149C110.668 19.0893 110.678 19.1684 110.673 19.2473V26.9771C110.683 27.0634 110.674 27.1507 110.647 27.2326C110.62 27.3145 110.577 27.3887 110.52 27.4499C110.428 27.5324 110.313 27.5784 110.194 27.58C109.851 27.58 109.681 27.3879 109.681 27.002L109.677 19.2473Z" fill="white"/>
<path d="M113.865 19.7539H112.3C112.239 19.757 112.178 19.7454 112.12 19.7203C112.064 19.6951 112.012 19.6569 111.971 19.6083C111.886 19.5093 111.835 19.3827 111.827 19.2488C111.836 19.1163 111.887 18.9912 111.971 18.8939C112.015 18.844 112.069 18.8051 112.129 18.7797C112.188 18.7543 112.252 18.743 112.316 18.7467H116.391C116.458 18.7415 116.526 18.7516 116.589 18.7765C116.652 18.8013 116.71 18.8403 116.758 18.8908C116.842 18.9877 116.887 19.1163 116.883 19.2488C116.888 19.3806 116.847 19.5096 116.767 19.6098C116.725 19.6587 116.674 19.6969 116.618 19.7219C116.561 19.7468 116.5 19.7578 116.439 19.7539H114.869V27.0252C114.873 27.1009 114.861 27.1765 114.834 27.2466C114.807 27.3168 114.767 27.3798 114.715 27.4312C114.618 27.5307 114.489 27.5861 114.355 27.5862C114.291 27.5861 114.228 27.5724 114.169 27.5457C114.11 27.5192 114.057 27.4802 114.013 27.4312C113.964 27.3782 113.925 27.3146 113.901 27.2447C113.875 27.1747 113.865 27.0999 113.869 27.0252L113.865 19.7539Z" fill="white"/>
<path d="M118.819 25.6135L118.28 27.1989C118.252 27.3183 118.184 27.4225 118.09 27.4926C117.996 27.5626 117.881 27.5937 117.768 27.5801C117.651 27.5851 117.536 27.5444 117.445 27.4655C117.403 27.4272 117.368 27.3799 117.343 27.3266C117.318 27.2733 117.304 27.2151 117.301 27.1555C117.31 27.1075 117.321 27.0532 117.336 27.0005C117.35 26.9479 117.36 26.8967 117.367 26.8657L119.992 19.3094C120.046 19.1238 120.146 18.9573 120.28 18.8274C120.393 18.7204 120.538 18.6605 120.688 18.6585C120.843 18.6573 120.993 18.7149 121.113 18.8212C121.247 18.9442 121.347 19.1053 121.4 19.2861L124.061 26.8673C124.087 26.9684 124.102 27.0724 124.106 27.1772C124.109 27.2376 124.099 27.2977 124.076 27.3529C124.053 27.4082 124.019 27.4568 123.975 27.4949C123.878 27.5747 123.759 27.6153 123.638 27.6096C123.526 27.6095 123.416 27.5733 123.324 27.5057C123.227 27.4331 123.157 27.3262 123.125 27.2035L122.588 25.6182L118.819 25.6135ZM119.126 24.6837H122.293L120.709 19.9308H120.686L119.126 24.6837Z" fill="white"/>
<path d="M125.373 19.2473C125.365 19.1717 125.373 19.0951 125.396 19.0231C125.418 18.9511 125.455 18.8853 125.504 18.8303C125.553 18.7754 125.613 18.7326 125.679 18.7051C125.744 18.6775 125.815 18.6658 125.886 18.6708C126.205 18.6708 126.365 18.8774 126.365 19.2907V26.4999H128.419C128.563 26.4967 128.706 26.5399 128.827 26.6239C128.883 26.6615 128.928 26.7142 128.959 26.7768C128.989 26.8394 129.004 26.9097 129.001 26.9803C129.001 27.2004 128.948 27.3429 128.843 27.4096C128.765 27.4664 128.675 27.5006 128.581 27.5088H125.845C125.785 27.509 125.726 27.496 125.671 27.4707C125.615 27.4454 125.565 27.4082 125.524 27.3615C125.469 27.2929 125.428 27.2126 125.403 27.126C125.379 27.0393 125.37 26.948 125.38 26.8579L125.373 19.2473Z" fill="white"/>
<path d="M62.585 31.2699C62.581 31.2418 62.5831 31.2131 62.5911 31.1861C62.5992 31.1591 62.613 31.1344 62.6314 31.1141C62.6499 31.0938 62.6725 31.0784 62.6974 31.0692C62.7223 31.0598 62.7489 31.0569 62.775 31.0606H63.524C63.7694 31.0545 64.0104 31.1285 64.2162 31.273C64.4119 31.4158 64.5661 31.6151 64.6611 31.8479C64.7655 32.0978 64.8178 32.3691 64.8153 32.6429C64.8184 32.9278 64.7693 33.2104 64.6712 33.4751C64.5837 33.7115 64.4301 33.913 64.2319 34.0517C64.0337 34.1905 63.8002 34.2597 63.5643 34.25H62.7823C62.7555 34.2524 62.7287 34.2482 62.7037 34.2377C62.6788 34.2272 62.6564 34.2107 62.6382 34.1895C62.6114 34.1579 62.5953 34.1175 62.5922 34.0749L62.585 31.2699ZM62.9463 31.4V33.9075H63.5152C63.6102 33.906 63.7046 33.8887 63.7946 33.8563C63.9009 33.8138 63.9991 33.749 64.0822 33.6657C64.191 33.5553 64.2735 33.4188 64.3232 33.2675C64.3911 33.058 64.4232 32.8369 64.4182 32.615C64.4201 32.4422 64.3968 32.27 64.349 32.1051C64.3093 31.9653 64.2439 31.8356 64.1558 31.7239C64.0727 31.6194 63.9683 31.5372 63.8506 31.4837C63.7266 31.4266 63.5926 31.3981 63.4573 31.4H62.9463Z" fill="white"/>
<path d="M66.4136 31.2699C66.4111 31.2411 66.4155 31.212 66.4256 31.1851C66.4356 31.1583 66.4514 31.1342 66.4709 31.1149C66.5048 31.0852 66.547 31.0683 66.5904 31.0669H67.3002C67.4443 31.068 67.5853 31.1046 67.7137 31.1738C67.8521 31.2451 67.9691 31.3561 68.0522 31.4946C68.1447 31.6507 68.1913 31.8332 68.1862 32.0184C68.1793 32.153 68.1491 32.285 68.0969 32.4074C68.0535 32.5086 67.9868 32.5965 67.9037 32.6631C67.8169 32.7285 67.7193 32.7749 67.6161 32.7995C67.4871 32.8278 67.3556 32.8413 67.2241 32.8397L68.1699 33.9586C68.1932 33.9799 68.212 34.0062 68.2246 34.0359C68.2378 34.0656 68.2448 34.0979 68.2448 34.1306C68.2448 34.1502 68.2404 34.1695 68.2322 34.1867C68.2234 34.204 68.2114 34.2188 68.1963 34.2299C68.1611 34.2571 68.1183 34.2712 68.0749 34.2701C68.0428 34.2716 68.0107 34.2651 67.9817 34.2511C67.9522 34.2372 67.9257 34.2161 67.905 34.1895L66.7735 32.8537V34.0935C66.7754 34.12 66.771 34.1466 66.7622 34.1713C66.7528 34.196 66.7383 34.2181 66.7201 34.236C66.6848 34.2698 66.6382 34.2875 66.5904 34.2856C66.5665 34.2863 66.542 34.2816 66.5199 34.2716C66.4973 34.2616 66.4772 34.2466 66.4602 34.2276C66.4438 34.2085 66.4306 34.1859 66.4224 34.1612C66.4149 34.1365 66.4117 34.1102 66.4136 34.0841V31.2699ZM66.7735 31.4001V32.5345H67.2889C67.4015 32.5415 67.5142 32.5153 67.6142 32.4585C67.6872 32.4144 67.7432 32.3442 67.7728 32.2601C67.8036 32.1635 67.82 32.0619 67.82 31.9595C67.8225 31.8553 67.7967 31.7527 67.747 31.6635C67.6992 31.5795 67.63 31.5118 67.5482 31.4682C67.4626 31.4226 67.3688 31.3993 67.2732 31.4001H66.7735Z" fill="white"/>
<path d="M69.7959 31.2791C69.7946 31.2233 69.8104 31.1687 69.8418 31.1241C69.8551 31.1065 69.8714 31.0921 69.8897 31.0819C69.9085 31.0717 69.9287 31.066 69.9501 31.0652H71.0658C71.0872 31.0646 71.1079 31.069 71.1274 31.0781C71.1469 31.0872 71.1639 31.1008 71.1778 31.118C71.2067 31.1542 71.2212 31.2006 71.2199 31.2481C71.2212 31.296 71.2061 31.3429 71.1778 31.3798C71.1633 31.3981 71.1451 31.4123 71.1243 31.4214C71.1035 31.4305 71.0809 31.4344 71.0588 31.4326H70.1571V32.4817H70.9796C71.0016 32.4801 71.0236 32.484 71.0444 32.4932C71.0645 32.5023 71.0828 32.5164 71.0972 32.5343C71.1256 32.5709 71.1413 32.6169 71.1413 32.6646C71.1413 32.7121 71.1256 32.7582 71.0972 32.7947C71.0815 32.8127 71.062 32.8267 71.04 32.8358C71.0186 32.8449 70.9953 32.8489 70.972 32.8474H70.1584V33.8842H71.067C71.0884 33.8835 71.1098 33.888 71.13 33.8974C71.1495 33.9068 71.1671 33.9208 71.1809 33.9384C71.2092 33.9778 71.2231 34.0267 71.2212 34.0763C71.2218 34.0991 71.2181 34.1217 71.2099 34.1427C71.2023 34.1638 71.1904 34.1829 71.1753 34.1987C71.1576 34.2171 71.1369 34.2314 71.1142 34.2405C71.0916 34.2495 71.067 34.2533 71.0425 34.2514H69.9759C69.9476 34.2559 69.9192 34.2513 69.8934 34.2384C69.8683 34.2255 69.8462 34.2047 69.8318 34.1786C69.811 34.1359 69.7997 34.0887 69.7984 34.0407L69.7959 31.2791Z" fill="white"/>
<path d="M73.2009 33.5571L73.0052 34.1351C72.9945 34.1783 72.9706 34.216 72.936 34.2413C72.902 34.2666 72.8604 34.2779 72.8195 34.2731C72.7767 34.2747 72.7352 34.2599 72.7012 34.2313C72.6855 34.2173 72.6723 34.1999 72.6635 34.1801C72.654 34.1604 72.649 34.1387 72.6484 34.1166C72.6484 34.0995 72.6566 34.0794 72.661 34.0593C72.6654 34.0391 72.6698 34.0205 72.6729 34.0096L73.6275 31.262C73.6464 31.1942 73.6829 31.1335 73.7326 31.0869C73.7722 31.0487 73.8232 31.0268 73.8761 31.0249C73.9327 31.0246 73.9868 31.0454 74.0302 31.0838C74.0787 31.1287 74.1146 31.1871 74.1341 31.2527L75.1019 34.0096C75.1113 34.047 75.1164 34.0856 75.1176 34.1243C75.1183 34.1463 75.1145 34.1683 75.1063 34.1884C75.0981 34.2086 75.0855 34.2264 75.0698 34.2405C75.0352 34.2697 74.9918 34.2845 74.9477 34.2824C74.9068 34.2827 74.8672 34.2697 74.8338 34.2452C74.7986 34.2187 74.7734 34.1798 74.7621 34.1351L74.5658 33.5571H73.2009ZM73.3116 33.2193H74.4638L73.888 31.4898H73.8792L73.3116 33.2193Z" fill="white"/>
<path d="M76.9274 31.3041C76.933 31.2234 76.9676 31.1484 77.0236 31.0948C77.0727 31.0479 77.1357 31.0219 77.2011 31.022C77.2628 31.0202 77.3232 31.0398 77.3735 31.0778C77.4239 31.117 77.4591 31.175 77.4717 31.2405L78.1079 33.5759L78.7403 31.2266C78.7522 31.1633 78.7869 31.1075 78.8366 31.0716C78.885 31.0365 78.9423 31.0181 79.0008 31.0189C79.0688 31.0171 79.1348 31.0413 79.1877 31.0871C79.2412 31.1369 79.2752 31.2067 79.2827 31.2823L79.715 34.0114C79.7194 34.0825 79.7012 34.1531 79.6634 34.2113C79.6483 34.2318 79.6288 34.2483 79.6068 34.2596C79.5848 34.2709 79.5609 34.2766 79.5363 34.2764C79.4916 34.2774 79.4482 34.2609 79.4142 34.2299C79.379 34.1967 79.3557 34.1511 79.3494 34.1013L79.0096 31.5288L78.2897 34.1183C78.2828 34.1635 78.2614 34.2045 78.2281 34.2331C78.1953 34.2618 78.1532 34.2762 78.111 34.2733C78.0689 34.2728 78.0286 34.2569 77.9959 34.2283C77.9606 34.2002 77.9355 34.1604 77.9235 34.1152L77.2036 31.5257L76.8556 34.1152C76.8493 34.1706 76.8242 34.2214 76.7852 34.2578C76.748 34.2915 76.7008 34.3097 76.6524 34.309C76.6304 34.309 76.609 34.3038 76.5895 34.2936C76.5693 34.2834 76.5523 34.2685 76.5385 34.2501C76.5014 34.203 76.4812 34.1429 76.4825 34.0811C76.485 34.0512 76.485 34.0212 76.4825 33.9912L76.9274 31.3041Z" fill="white"/>
<path d="M83.5291 31.2437C83.5291 31.1043 83.5913 31.0345 83.7147 31.0345C83.738 31.0338 83.7606 31.0381 83.782 31.0471C83.8034 31.0562 83.8223 31.0698 83.8386 31.0872C83.8569 31.1077 83.8707 31.1321 83.8802 31.1588C83.889 31.1855 83.8928 31.2139 83.8902 31.2421V34.0534C83.8934 34.0847 83.8903 34.1164 83.8802 34.1461C83.8707 34.1758 83.855 34.2028 83.8342 34.2254C83.8003 34.2548 83.7587 34.2712 83.7147 34.2719C83.5913 34.2719 83.5291 34.2021 83.5291 34.0611V31.2437Z" fill="white"/>
<path d="M86.0908 31.4279H85.515C85.4924 31.4289 85.4704 31.4248 85.4496 31.4157C85.4288 31.4066 85.4106 31.3928 85.3955 31.3752C85.3659 31.3383 85.3477 31.2921 85.3452 31.2434C85.3483 31.1956 85.3665 31.1504 85.3967 31.1148C85.4131 31.0967 85.4326 31.0825 85.4546 31.0732C85.4767 31.0638 85.4999 31.0596 85.5232 31.0606H87.0052C87.0297 31.0591 87.0542 31.063 87.0769 31.0721C87.1002 31.0812 87.1209 31.0952 87.1392 31.1133C87.1688 31.1488 87.1851 31.1955 87.1839 31.2434C87.1851 31.2914 87.17 31.3382 87.1417 31.3752C87.1272 31.3934 87.1084 31.4076 87.0876 31.4168C87.0668 31.4259 87.0448 31.4298 87.0221 31.4279H86.4464V34.0717C86.4476 34.0991 86.4432 34.1266 86.4332 34.152C86.4237 34.1774 86.4092 34.2002 86.3904 34.2189C86.3551 34.2549 86.3079 34.2744 86.2595 34.2732C86.2362 34.2737 86.2135 34.2691 86.1921 34.2598C86.1707 34.2505 86.1512 34.2366 86.1355 34.2189C86.1173 34.1998 86.1034 34.1768 86.094 34.1515C86.0845 34.1261 86.0808 34.0989 86.082 34.0717L86.0908 31.4279Z" fill="white"/>
<path d="M88.8627 33.8177C88.8898 33.8178 88.9162 33.8239 88.9407 33.8357C88.9659 33.8474 88.9879 33.8645 89.0062 33.8859C89.0257 33.9059 89.0414 33.9299 89.0527 33.9565C89.0634 33.9831 89.0691 34.0118 89.0697 34.0408C89.0685 34.1009 89.0458 34.1582 89.0068 34.2006C88.9672 34.2431 88.9137 34.2675 88.8583 34.2687C88.8312 34.2679 88.8042 34.2614 88.7796 34.2495C88.7551 34.2375 88.7324 34.2203 88.7142 34.1989C88.6752 34.1582 88.6519 34.1026 88.6506 34.0439C88.6519 33.9839 88.6745 33.9267 88.7142 33.8842C88.7532 33.8417 88.8067 33.8173 88.8627 33.8162V33.8177Z" fill="white"/>
<path d="M91.1501 33.5571L90.9544 34.1351C90.9444 34.1783 90.9198 34.216 90.8852 34.2413C90.8512 34.2666 90.8097 34.2779 90.7688 34.2731C90.726 34.2747 90.6845 34.2599 90.6505 34.2313C90.6348 34.2173 90.6216 34.1999 90.6128 34.1801C90.6033 34.1604 90.5983 34.1387 90.5977 34.1166C90.5977 34.0995 90.6058 34.0794 90.6102 34.0593C90.6146 34.0391 90.619 34.0205 90.6222 34.0096L91.5768 31.262C91.5957 31.1942 91.6322 31.1335 91.6819 31.0869C91.7215 31.0487 91.7725 31.0268 91.826 31.0249C91.882 31.0246 91.9361 31.0454 91.9795 31.0838C92.028 31.1287 92.0638 31.1871 92.0834 31.2527L93.0512 34.0096C93.0606 34.047 93.0656 34.0856 93.0669 34.1243C93.0675 34.1463 93.0638 34.1683 93.0556 34.1884C93.0474 34.2086 93.0348 34.2264 93.0191 34.2405C92.9845 34.2697 92.941 34.2845 92.897 34.2824C92.8605 34.2812 92.8253 34.2694 92.7944 34.2483C92.7592 34.2219 92.734 34.1829 92.7227 34.1383L92.527 33.5602L91.1501 33.5571ZM91.2615 33.2193H92.4131L91.8373 31.4898H91.8285L91.2615 33.2193Z" fill="white"/>
<path d="M96.5788 31.3739C96.6128 31.4169 96.631 31.4722 96.6291 31.5289C96.6291 31.5497 96.6247 31.5704 96.6172 31.5895C96.6096 31.6087 96.5983 31.626 96.5845 31.6404C96.5555 31.6718 96.5171 31.6906 96.4762 31.6931C96.4441 31.687 96.4127 31.6749 96.3844 31.6575L96.2201 31.5273C96.1635 31.4837 96.1012 31.4482 96.0357 31.4219C95.9558 31.3916 95.8715 31.3764 95.7865 31.377C95.5934 31.369 95.4046 31.438 95.2554 31.5707C95.1145 31.6991 95.0075 31.8653 94.9458 32.0526C94.8835 32.2373 94.8489 32.4313 94.8433 32.6276C94.8458 32.8176 94.8728 33.0064 94.9226 33.1886C94.9723 33.3834 95.0667 33.5615 95.1976 33.7062C95.2674 33.7804 95.3505 33.8389 95.4411 33.8786C95.5323 33.9182 95.6299 33.9381 95.7274 33.9371C95.8501 33.9414 95.9722 33.9209 96.0873 33.8766C96.2044 33.8242 96.3176 33.7626 96.4259 33.6922C96.4617 33.6683 96.5033 33.6559 96.5454 33.6566C96.565 33.6552 96.5845 33.6591 96.6021 33.6677C96.6203 33.6763 96.6361 33.6895 96.648 33.7062C96.6726 33.7417 96.6858 33.7856 96.6839 33.8301C96.6877 33.8589 96.6845 33.888 96.6744 33.9151C96.665 33.9422 96.6493 33.9663 96.6291 33.9851C96.5146 34.0962 96.3768 34.175 96.227 34.2145C96.0729 34.26 95.9137 34.2834 95.7538 34.2842C95.5474 34.2863 95.3442 34.2331 95.1617 34.1292C95.0012 34.0354 94.8621 33.9035 94.7558 33.7434C94.6513 33.5863 94.5727 33.4113 94.5223 33.2257C94.4752 33.0553 94.4512 32.8784 94.4506 32.7004C94.4493 32.486 94.477 32.2725 94.5324 32.0666C94.5846 31.8742 94.6683 31.6936 94.7803 31.5335C94.8898 31.3797 95.0308 31.2552 95.1919 31.1693C95.3681 31.0785 95.5613 31.0323 95.7563 31.0345C95.8595 31.035 95.9627 31.0474 96.0634 31.0717C96.1635 31.0963 96.2604 31.1348 96.351 31.1864C96.4391 31.2299 96.5165 31.294 96.5788 31.3739Z" fill="white"/>
<path d="M98.2659 31.2621C98.2633 31.2012 98.2816 31.1415 98.3181 31.0947C98.3338 31.0755 98.3527 31.0601 98.3747 31.0496C98.3961 31.0393 98.4194 31.034 98.4433 31.0342C98.4679 31.0336 98.4918 31.0387 98.5144 31.0491C98.5365 31.0596 98.5566 31.0751 98.573 31.0947C98.5912 31.1174 98.6057 31.1439 98.6151 31.1726C98.6239 31.2013 98.6277 31.2317 98.6258 31.2621V32.4817H100.183V31.2621C100.179 31.1991 100.198 31.1371 100.236 31.0885C100.251 31.0688 100.271 31.053 100.292 31.0421C100.314 31.0311 100.337 31.0253 100.361 31.025C100.386 31.0243 100.411 31.0295 100.434 31.0402C100.456 31.0509 100.477 31.0668 100.493 31.0869C100.532 31.1353 100.552 31.1982 100.548 31.2621V34.0515C100.549 34.08 100.544 34.1083 100.536 34.1349C100.526 34.1615 100.512 34.1858 100.493 34.2065C100.476 34.2248 100.455 34.2391 100.432 34.2487C100.41 34.2582 100.385 34.2629 100.361 34.2623C100.338 34.2626 100.315 34.2576 100.293 34.2478C100.272 34.2379 100.253 34.2233 100.237 34.2049C100.201 34.163 100.181 34.1073 100.183 34.05V32.8195H98.622V34.05C98.6227 34.0783 98.6189 34.1065 98.6094 34.1332C98.6006 34.1597 98.5862 34.1842 98.5685 34.2049C98.5516 34.2233 98.5314 34.2377 98.5094 34.2473C98.4867 34.2569 98.4628 34.2614 98.4389 34.2607C98.4156 34.261 98.3924 34.2562 98.371 34.2463C98.3489 34.2364 98.3294 34.2218 98.3137 34.2034C98.2791 34.1607 98.2602 34.1053 98.2621 34.0484L98.2659 31.2621Z" fill="white"/>
<path d="M102.259 31.2437C102.259 31.1043 102.321 31.0345 102.445 31.0345C102.468 31.0338 102.49 31.0381 102.512 31.0471C102.533 31.0562 102.552 31.0698 102.568 31.0872C102.586 31.1078 102.6 31.1323 102.609 31.159C102.617 31.1857 102.621 31.214 102.619 31.2421V34.0534C102.622 34.0847 102.619 34.1164 102.609 34.1462C102.599 34.176 102.583 34.203 102.563 34.2254C102.53 34.255 102.488 34.2715 102.445 34.2719C102.321 34.2719 102.259 34.2021 102.259 34.0611V31.2437Z" fill="white"/>
<path d="M104.325 31.2791C104.324 31.2233 104.34 31.1687 104.371 31.1241C104.384 31.1067 104.4 31.0923 104.418 31.0822C104.437 31.0721 104.457 31.0662 104.477 31.0652H105.595C105.616 31.0646 105.637 31.069 105.657 31.0781C105.676 31.0872 105.693 31.1008 105.708 31.118C105.735 31.1546 105.75 31.2008 105.749 31.2481C105.75 31.2964 105.735 31.3434 105.706 31.3798C105.691 31.3981 105.673 31.4123 105.652 31.4214C105.632 31.4305 105.609 31.4344 105.586 31.4326H104.686V32.4817H105.508C105.53 32.4799 105.552 32.4836 105.573 32.4928C105.594 32.5019 105.612 32.5162 105.626 32.5343C105.656 32.5702 105.672 32.6168 105.67 32.6646C105.671 32.6884 105.667 32.7123 105.659 32.7346C105.651 32.757 105.639 32.7774 105.624 32.7947C105.608 32.8126 105.589 32.8265 105.567 32.8356C105.546 32.8447 105.523 32.8487 105.5 32.8474H104.686V33.8842H105.595C105.616 33.8835 105.638 33.888 105.658 33.8974C105.677 33.9068 105.695 33.9208 105.709 33.9384C105.737 33.9778 105.751 34.0267 105.749 34.0763C105.749 34.099 105.745 34.1215 105.738 34.1425C105.73 34.1636 105.718 34.1826 105.703 34.1987C105.686 34.2174 105.665 34.2317 105.642 34.2408C105.618 34.2499 105.594 34.2535 105.569 34.2514H104.504C104.476 34.2559 104.447 34.2513 104.421 34.2384C104.396 34.2255 104.374 34.2047 104.36 34.1786C104.339 34.1359 104.328 34.0887 104.326 34.0407L104.325 31.2791Z" fill="white"/>
<path d="M107.178 31.3336C107.163 31.2865 107.152 31.2384 107.144 31.1895C107.143 31.1367 107.16 31.0853 107.192 31.0454C107.206 31.0274 107.223 31.0131 107.243 31.0035C107.263 30.9938 107.284 30.9891 107.305 30.9895C107.351 30.9903 107.395 31.0091 107.429 31.0423C107.471 31.0819 107.502 31.1327 107.519 31.1895L108.295 33.607H108.302L109.082 31.1817C109.094 31.1361 109.119 31.0959 109.155 31.0678C109.19 31.0396 109.233 31.0252 109.277 31.0268C109.298 31.0261 109.32 31.03 109.34 31.0382C109.359 31.0465 109.378 31.0589 109.393 31.0748C109.41 31.0943 109.422 31.1171 109.43 31.1418C109.438 31.1666 109.441 31.1928 109.439 31.2189C109.437 31.255 109.432 31.2908 109.423 31.3258L108.505 34.0828C108.486 34.1393 108.459 34.1918 108.423 34.2378C108.389 34.2672 108.346 34.2811 108.302 34.2765C108.257 34.2797 108.213 34.2665 108.175 34.2393C108.139 34.2018 108.113 34.1548 108.099 34.1029L107.178 31.3336Z" fill="white"/>
<path d="M110.925 31.2791C110.924 31.2233 110.94 31.1687 110.971 31.1241C110.984 31.1067 111 31.0923 111.019 31.0822C111.037 31.0721 111.058 31.0662 111.078 31.0652H112.195C112.217 31.0646 112.238 31.069 112.257 31.0781C112.277 31.0872 112.294 31.1008 112.307 31.118C112.336 31.1546 112.35 31.2008 112.35 31.2481C112.351 31.2964 112.336 31.3434 112.306 31.3798C112.292 31.3981 112.273 31.4123 112.252 31.4214C112.231 31.4305 112.209 31.4344 112.187 31.4326H111.285V32.4817H112.107C112.13 32.4799 112.153 32.4836 112.173 32.4928C112.194 32.5019 112.212 32.5162 112.227 32.5343C112.256 32.5706 112.271 32.6168 112.271 32.6646C112.271 32.7123 112.256 32.7585 112.227 32.7947C112.211 32.8126 112.192 32.8265 112.17 32.8356C112.149 32.8447 112.126 32.8487 112.103 32.8474H111.288V33.8842H112.199C112.22 33.8835 112.241 33.888 112.261 33.8974C112.28 33.9068 112.298 33.9208 112.312 33.9384C112.34 33.9778 112.355 34.0267 112.352 34.0763C112.353 34.099 112.349 34.1215 112.341 34.1425C112.333 34.1636 112.321 34.1826 112.306 34.1987C112.288 34.2174 112.268 34.2317 112.244 34.2408C112.222 34.2499 112.197 34.2535 112.172 34.2514H111.107C111.079 34.2559 111.05 34.2513 111.025 34.2384C110.999 34.2255 110.978 34.2047 110.963 34.1786C110.942 34.1359 110.931 34.0887 110.93 34.0407L110.925 31.2791Z" fill="white"/>
<path d="M116.211 31.2437C116.211 31.1042 116.273 31.0345 116.397 31.0345C116.42 31.0338 116.442 31.0382 116.464 31.0472C116.485 31.0563 116.505 31.0698 116.521 31.0872C116.539 31.108 116.552 31.1324 116.561 31.1591C116.569 31.1857 116.573 31.214 116.571 31.2421V34.0533C116.574 34.0847 116.571 34.1164 116.561 34.1462C116.551 34.176 116.535 34.203 116.515 34.2253C116.482 34.255 116.44 34.2714 116.397 34.2719C116.273 34.2719 116.211 34.2021 116.211 34.0611V31.2437Z" fill="white"/>
<path d="M118.772 31.4281H118.197C118.175 31.4292 118.152 31.4251 118.131 31.416C118.111 31.4069 118.092 31.393 118.077 31.3754C118.061 31.3585 118.048 31.3382 118.039 31.3159C118.031 31.2936 118.026 31.2695 118.026 31.2452C118.026 31.221 118.031 31.1969 118.039 31.1745C118.048 31.1522 118.061 31.1319 118.077 31.115C118.094 31.0969 118.114 31.0827 118.135 31.0734C118.157 31.064 118.18 31.0598 118.204 31.0608H119.686C119.71 31.0594 119.735 31.0634 119.757 31.0724C119.781 31.0814 119.801 31.0954 119.82 31.1135C119.849 31.149 119.866 31.1957 119.864 31.2436C119.866 31.2916 119.85 31.3384 119.822 31.3754C119.808 31.3936 119.789 31.4078 119.769 31.417C119.748 31.4261 119.725 31.4299 119.703 31.4281H119.127V34.0719C119.128 34.0993 119.124 34.1267 119.114 34.1521C119.104 34.1776 119.09 34.2004 119.071 34.2191C119.036 34.255 118.988 34.2746 118.94 34.2734C118.917 34.2737 118.893 34.2691 118.872 34.2598C118.851 34.2505 118.831 34.2367 118.815 34.2191C118.797 34.1997 118.783 34.1766 118.774 34.1513C118.766 34.126 118.761 34.0989 118.762 34.0719L118.772 31.4281Z" fill="white"/>
</g>
<defs>
<clipPath id="clip0_44_3339">
<rect width="129" height="53" fill="white"/>
</clipPath>
</defs>
</svg>
