<svg width="24" height="24" viewBox="0 0 24 24" fill="none" xmlns="http://www.w3.org/2000/svg">
<path d="M19 19.2674V7.84496C19 5.64147 17.4253 3.74489 15.2391 3.31522C13.1006 2.89493 10.8994 2.89493 8.76089 3.31522C6.57467 3.74489 5 5.64147 5 7.84496V19.2674C5 20.6038 6.46752 21.4355 7.63416 20.7604L10.8211 18.9159C11.5492 18.4945 12.4508 18.4945 13.1789 18.9159L16.3658 20.7604C17.5325 21.4355 19 20.6038 19 19.2674Z" stroke="white" strokeWidth="1.5" strokeLinecap="round" strokeLinejoin="round"/>
<path d="M11.52 16.044H12.3V15.06C13.92 14.916 14.808 13.788 14.808 12.624C14.808 10.932 13.5 10.608 12.3 10.32V7.72804C12.876 7.87204 13.212 8.31604 13.26 8.79604H14.724C14.616 7.44004 13.68 6.68404 12.3 6.56404V5.59204H11.52V6.57604C10.032 6.70804 9 7.63204 9 8.97604C9 10.668 10.32 11.004 11.52 11.304V13.944C10.848 13.824 10.512 13.38 10.464 12.78H9C9 14.136 10.056 14.94 11.52 15.072V16.044ZM13.428 12.696C13.428 13.32 13.02 13.824 12.3 13.944V11.508C12.948 11.712 13.428 12.012 13.428 12.696ZM10.392 8.90404C10.392 8.17204 10.86 7.77604 11.52 7.69204V10.116C10.872 9.91204 10.392 9.60004 10.392 8.90404Z" fill="white"/>
</svg>
