<svg width="265" height="177" viewBox="0 0 265 177" fill="none" xmlns="http://www.w3.org/2000/svg">
<mask id="mask0_0_1" style="mask-type:alpha" maskUnits="userSpaceOnUse" x="0" y="0" width="265" height="177">
<rect width="265" height="177" rx="25" fill="#3B3854"/>
</mask>
<g mask="url(#mask0_0_1)">
<rect opacity="0.5" width="265" height="177" rx="10" fill="url(#paint0_linear_0_1)"/>
</g>
<g filter="url(#filter0_f_0_1)">
<circle cx="218.5" cy="131.5" r="80.5" fill="url(#paint1_linear_0_1)"/>
<circle cx="218.5" cy="131.5" r="80" stroke="white" stroke-opacity="0.1"/>
</g>
<g opacity="0.1">
<path fillRule="evenodd" clipRule="evenodd" d="M222.615 99.7502C230.137 97.9857 237.966 97.9857 245.489 99.7502C255.294 102.05 262.95 109.706 265.25 119.511C267.014 127.034 267.014 134.863 265.25 142.385C264.117 147.215 261.684 151.525 258.334 154.929C259.474 147.611 259.196 140.128 257.498 132.891C254.543 120.293 244.707 110.457 232.109 107.502C224.872 105.804 217.389 105.526 210.071 106.666C213.475 103.316 217.785 100.883 222.615 99.7502ZM272.602 144.109C270.269 154.058 263.644 162.283 254.758 166.758C250.283 175.644 242.058 182.269 232.109 184.602C223.453 186.633 214.444 186.633 205.787 184.602C193.189 181.647 183.353 171.811 180.398 159.213C178.367 150.556 178.367 141.547 180.398 132.89C182.731 122.943 189.355 114.717 198.242 110.242C202.717 101.356 210.942 94.7315 220.891 92.3979C229.547 90.3674 238.556 90.3674 247.213 92.3979C259.811 95.3529 269.647 105.189 272.602 117.787C274.633 126.444 274.633 135.453 272.602 144.109ZM201.331 136.824C202.257 135.436 204.132 135.061 205.52 135.987L215.039 142.332C217.406 143.911 220.49 143.911 222.858 142.332L232.376 135.987C233.764 135.061 235.64 135.436 236.565 136.824C237.491 138.213 237.116 140.088 235.727 141.013L226.209 147.359C221.812 150.29 216.084 150.29 211.687 147.359L202.169 141.013C200.781 140.088 200.406 138.213 201.331 136.824Z" fill="white"/>
</g>
<defs>
<filter id="filter0_f_0_1" x="38" y="-49" width="361" height="361" filterUnits="userSpaceOnUse" color-interpolation-filters="sRGB">
<feFlood flood-opacity="0" result="BackgroundImageFix"/>
<feBlend mode="normal" in="SourceGraphic" in2="BackgroundImageFix" result="shape"/>
<feGaussianBlur stdDeviation="50" result="effect1_foregroundBlur_0_1"/>
</filter>
<linearGradient id="paint0_linear_0_1" x1="265" y1="54.516" x2="-0.887081" y2="64.2371" gradientUnits="userSpaceOnUse">
<stop stop-color="#262A33"/>
<stop offset="1" stop-color="#1B1E25" stop-opacity="0.5"/>
</linearGradient>
<linearGradient id="paint1_linear_0_1" x1="142.954" y1="58.5943" x2="326.686" y2="91.5939" gradientUnits="userSpaceOnUse">
<stop stop-color="#E2815D"/>
<stop offset="1" stop-color="#B9674A"/>
</linearGradient>
</defs>
</svg>
