<svg width="48" height="48" viewBox="0 0 48 48" fill="none" xmlns="http://www.w3.org/2000/svg">
<mask id="mask0_44_3172" style="mask-type:alpha" maskUnits="userSpaceOnUse" x="0" y="0" width="48" height="48">
<rect width="48" height="48" rx="15" fill="#F47459"/>
</mask>
<g mask="url(#mask0_44_3172)">
<rect width="48" height="48" rx="15" fill="#F20CEC"/>
<path d="M38.3776 30.8138C38.4315 30.5809 38.4163 30.3374 38.3338 30.1131C38.209 29.7715 37.8858 29.3423 37.1054 29.1332C37.1054 29.1332 36.6394 29.0083 36.7248 28.4111C36.7374 28.3284 36.7902 28.2573 36.8656 28.2211L51.8094 21.3986L27.7756 23.9539L11.7047 19.6477L21.407 32.0081C21.407 32.0081 24.6246 29.9995 28.2788 31.3614C28.2788 31.3614 27.1083 34.3013 30.5711 36.3775L31.6279 37.9831C31.7391 38.1512 31.8268 38.3337 31.8883 38.5256L32.7326 41.1672L38.0896 42.6026L37.73 38.1732C37.6717 37.4616 37.6764 36.7462 37.744 36.0354C37.8842 34.5265 38.1513 31.8728 38.3776 30.8138ZM36.4099 33.1574L34.685 31.7382C35.083 31.1019 35.3397 30.3874 35.4377 29.6433C35.4377 29.6433 37.3412 31.1103 36.4099 33.1574Z" fill="#59298D"/>
<path d="M38.6244 53.4635L28.2556 40.7331L12.8631 46.7522L20.3741 35.0845C21.6759 32.9779 24.2096 31.9803 26.5982 32.6335C26.5982 32.6335 27.0476 35.242 28.7247 36.8397C28.7247 36.8397 30.4019 38.4374 30.4591 40.3666L31.7663 42.6307L38.1947 44.3532L38.6244 53.4635ZM39.3089 28.7667L41.5251 27.6381L54.2033 31.0352L39.3592 36.4357C39.3592 36.4357 39.4712 32.4466 39.9975 30.4823C40.5238 28.5181 40.0932 30.1252 39.3089 28.7667ZM36.3417 10.5555L28.7898 22.3118L37.2815 21.3336L36.3417 10.5555Z" fill="white"/>
</g>
</svg>
