<svg width="265" height="177" viewBox="0 0 265 177" fill="none" xmlns="http://www.w3.org/2000/svg">
<mask id="mask0_0_1" style="mask-type:alpha" maskUnits="userSpaceOnUse" x="0" y="0" width="265" height="177">
<rect width="265" height="177" rx="25" fill="#3B3854"/>
</mask>
<g mask="url(#mask0_0_1)">
<rect opacity="0.5" width="265" height="177" rx="25" fill="url(#paint0_linear_0_1)"/>
</g>
<g filter="url(#filter0_f_0_1)">
<circle cx="218.5" cy="131.5" r="80.5" fill="url(#paint1_linear_0_1)"/>
<circle cx="218.5" cy="131.5" r="80" stroke="white" stroke-opacity="0.1"/>
</g>
<g opacity="0.1">
<path d="M218.944 128.994H220.238V136.861L218.06 136.072C216.902 135.653 215.886 134.347 215.886 132.612C215.886 130.342 217.517 128.994 218.944 128.994Z" fill="white"/>
<path d="M226.765 154.005V146.139L228.94 146.927C230.099 147.347 231.114 148.652 231.114 150.388C231.114 152.657 229.484 154.005 228.056 154.005H226.765Z" fill="white"/>
<path fillRule="evenodd" clipRule="evenodd" d="M207.209 94.9004C217.94 92.5332 229.06 92.5332 239.791 94.9004L242.035 95.3955C257.022 98.7015 268.836 110.171 272.536 125.005C275.238 135.837 275.238 147.163 272.536 157.995C268.836 172.829 257.022 184.298 242.035 187.604L239.791 188.1C229.06 190.467 217.94 190.467 207.209 188.1L204.965 187.604C189.978 184.298 178.164 172.829 174.464 157.995C171.762 147.163 171.762 135.837 174.464 125.005C178.164 110.171 189.978 98.7015 204.965 95.3955L207.209 94.9004ZM226.765 119.837C226.765 118.043 225.304 116.588 223.501 116.588C221.699 116.588 220.238 118.043 220.238 119.837V122.496H218.944C213.389 122.496 209.36 127.297 209.36 132.612C209.36 136.787 211.826 140.73 215.83 142.18L220.238 143.776V154.005H219.875C217.933 154.005 215.886 152.205 215.886 149.377C215.886 147.582 214.425 146.128 212.623 146.128C210.821 146.128 209.36 147.582 209.36 149.377C209.36 155.25 213.806 160.504 219.875 160.504H220.238V163.163C220.238 164.957 221.699 166.412 223.501 166.412C225.304 166.412 226.765 164.957 226.765 163.163V160.504H228.056C233.611 160.504 237.641 155.703 237.641 150.388C237.641 146.212 235.174 142.269 231.17 140.82L226.765 139.224V128.994H227.126C229.067 128.994 231.114 130.795 231.114 133.622C231.114 135.417 232.575 136.872 234.377 136.872C236.18 136.872 237.641 135.417 237.641 133.622C237.641 127.749 233.195 122.496 227.126 122.496H226.765V119.837Z" fill="white"/>
</g>
<defs>
<filter id="filter0_f_0_1" x="38" y="-49" width="361" height="361" filterUnits="userSpaceOnUse" color-interpolation-filters="sRGB">
<feFlood flood-opacity="0" result="BackgroundImageFix"/>
<feBlend mode="normal" in="SourceGraphic" in2="BackgroundImageFix" result="shape"/>
<feGaussianBlur stdDeviation="50" result="effect1_foregroundBlur_0_1"/>
</filter>
<linearGradient id="paint0_linear_0_1" x1="265" y1="54.516" x2="-0.887081" y2="64.2371" gradientUnits="userSpaceOnUse">
<stop stop-color="#262A33"/>
<stop offset="1" stop-color="#1B1E25" stop-opacity="0.5"/>
</linearGradient>
<linearGradient id="paint1_linear_0_1" x1="142.954" y1="58.5943" x2="326.686" y2="91.5939" gradientUnits="userSpaceOnUse">
<stop stop-color="#89B68E"/>
<stop offset="1" stop-color="#384C41"/>
</linearGradient>
</defs>
</svg>
