<svg width="24" height="24" viewBox="0 0 24 24" fill="none" xmlns="http://www.w3.org/2000/svg">
<path d="M3.86241 10.7032C3.38351 12.513 3.37707 14.4414 3.85597 16.2511C4.44153 18.464 6.22102 20.1547 8.45287 20.6188L8.60824 20.6511C10.8457 21.1163 13.1543 21.1163 15.3918 20.6511L15.5471 20.6188C17.779 20.1547 19.5585 18.464 20.144 16.2511C20.6229 14.4414 20.6165 12.513 20.1376 10.7032C19.5611 8.52447 17.8007 6.82847 15.6032 6.37155C13.2263 5.87731 10.7737 5.87731 8.39677 6.37155M3.86241 10.7032C4.43895 8.52447 6.1993 6.82847 8.39677 6.37155M3.86241 10.7032C3.66414 11.4525 3.54685 12.2221 3.51146 12.9952V7.25212C3.51146 5.3599 4.79687 3.69319 6.61272 3.19064C7.06583 3.06524 7.53975 3 8.00974 3H8.8677C10.5489 3 12.5221 4.31117 13.2463 6.04481C12.04 6.04503 9.58417 6.12466 8.39677 6.37155M14.6103 8.76913L14.6529 8.77627C16.4358 9.07479 17.7426 10.6245 17.7426 12.4404M3.51146 13.9964V14.0138L3.5124 14.0164C3.51208 14.0097 3.51177 14.0031 3.51146 13.9964Z" stroke="white" stroke-width="1.5" stroke-linecap="round"/>
</svg>
